<svg width="123" height="76" viewBox="0 0 123 76" fill="none" xmlns="http://www.w3.org/2000/svg">
<rect x="0.5" y="10.5303" width="121.191" height="64.791" rx="2.5" fill="white" stroke="#E01535"/>
<path d="M0 3.34961C0 1.69276 1.34315 0.349609 3 0.349609H62.3629C64.0198 0.349609 65.3629 1.69276 65.3629 3.34961V13.8416C65.3629 15.4984 64.0198 16.8416 62.3629 16.8416H0V3.34961Z" fill="#E01535"/>
<path d="M10.4021 4.48535H11.4958L13.5515 9.96875L15.6023 4.48535H16.696L13.9812 11.5947H13.1121L10.4021 4.48535ZM9.90405 4.48535H10.9441L11.1248 9.23145V11.5947H9.90405V4.48535ZM16.1541 4.48535H17.199V11.5947H15.9734V9.23145L16.1541 4.48535ZM21.9156 10.3496V6.31152H23.0972V11.5947H21.9839L21.9156 10.3496ZM22.0816 9.25098L22.4771 9.24121C22.4771 9.59603 22.438 9.92318 22.3599 10.2227C22.2818 10.5189 22.1613 10.7777 21.9986 10.999C21.8358 11.2171 21.6275 11.388 21.3736 11.5117C21.1197 11.6322 20.8153 11.6924 20.4605 11.6924C20.2033 11.6924 19.9673 11.6549 19.7525 11.5801C19.5376 11.5052 19.3521 11.3896 19.1958 11.2334C19.0429 11.0771 18.924 10.8737 18.8394 10.623C18.7548 10.3724 18.7125 10.0729 18.7125 9.72461V6.31152H19.8892V9.73438C19.8892 9.92643 19.912 10.0876 19.9576 10.2178C20.0031 10.3447 20.065 10.4473 20.1431 10.5254C20.2212 10.6035 20.3124 10.6589 20.4166 10.6914C20.5207 10.724 20.6314 10.7402 20.7486 10.7402C21.0839 10.7402 21.3475 10.6751 21.5396 10.5449C21.7349 10.4115 21.8733 10.2324 21.9546 10.0078C22.0393 9.7832 22.0816 9.53092 22.0816 9.25098ZM25.763 4.09473V11.5947H24.5814V4.09473H25.763ZM30.2306 10.5352V8.01562C30.2306 7.82682 30.1964 7.66406 30.1281 7.52734C30.0597 7.39062 29.9556 7.28483 29.8156 7.20996C29.6789 7.13509 29.5063 7.09766 29.298 7.09766C29.1059 7.09766 28.9399 7.13021 28.8 7.19531C28.66 7.26042 28.5509 7.34831 28.4728 7.45898C28.3947 7.56966 28.3556 7.69499 28.3556 7.83496H27.1837C27.1837 7.62663 27.2342 7.4248 27.3351 7.22949C27.436 7.03418 27.5825 6.86003 27.7746 6.70703C27.9666 6.55404 28.1961 6.43359 28.463 6.3457C28.73 6.25781 29.0294 6.21387 29.3615 6.21387C29.7586 6.21387 30.1102 6.2806 30.4162 6.41406C30.7254 6.54753 30.9679 6.74935 31.1437 7.01953C31.3227 7.28646 31.4123 7.62174 31.4123 8.02539V10.374C31.4123 10.6149 31.4285 10.8314 31.4611 11.0234C31.4969 11.2122 31.5473 11.3766 31.6125 11.5166V11.5947H30.4064C30.3511 11.4678 30.3071 11.3066 30.2746 11.1113C30.2453 10.9128 30.2306 10.7207 30.2306 10.5352ZM30.4015 8.38184L30.4113 9.10938H29.5666C29.3485 9.10938 29.1564 9.13053 28.9904 9.17285C28.8244 9.21191 28.686 9.27051 28.5753 9.34863C28.4647 9.42676 28.3817 9.52116 28.3263 9.63184C28.271 9.74251 28.2433 9.86784 28.2433 10.0078C28.2433 10.1478 28.2759 10.2764 28.341 10.3936C28.4061 10.5075 28.5005 10.597 28.6242 10.6621C28.7511 10.7272 28.9041 10.7598 29.0832 10.7598C29.324 10.7598 29.534 10.7109 29.713 10.6133C29.8953 10.5124 30.0386 10.3903 30.1427 10.2471C30.2469 10.1006 30.3022 9.96224 30.3087 9.83203L30.6896 10.3545C30.6505 10.488 30.5838 10.6312 30.4894 10.7842C30.395 10.9372 30.2713 11.0837 30.1183 11.2236C29.9686 11.3604 29.7879 11.4727 29.5763 11.5605C29.368 11.6484 29.1271 11.6924 28.8537 11.6924C28.5086 11.6924 28.201 11.624 27.9308 11.4873C27.6606 11.3473 27.449 11.1602 27.296 10.9258C27.1431 10.6882 27.0666 10.4196 27.0666 10.1201C27.0666 9.84017 27.1186 9.59277 27.2228 9.37793C27.3302 9.15983 27.4865 8.97754 27.6916 8.83105C27.8999 8.68457 28.1538 8.57389 28.4533 8.49902C28.7528 8.4209 29.0945 8.38184 29.4787 8.38184H30.4015ZM34.1025 6.31152V11.5947H32.9208V6.31152H34.1025ZM32.8427 4.9248C32.8427 4.74577 32.9013 4.59766 33.0185 4.48047C33.1389 4.36003 33.305 4.2998 33.5166 4.2998C33.7249 4.2998 33.8893 4.36003 34.0097 4.48047C34.1302 4.59766 34.1904 4.74577 34.1904 4.9248C34.1904 5.10059 34.1302 5.24707 34.0097 5.36426C33.8893 5.48145 33.7249 5.54004 33.5166 5.54004C33.305 5.54004 33.1389 5.48145 33.0185 5.36426C32.9013 5.24707 32.8427 5.10059 32.8427 4.9248ZM40.4644 11.5947H38.9459L38.9556 10.623H40.4644C40.9039 10.623 41.2717 10.527 41.5679 10.335C41.8674 10.1429 42.092 9.86784 42.2417 9.50977C42.3947 9.15169 42.4712 8.72526 42.4712 8.23047V7.84473C42.4712 7.46061 42.4273 7.12044 42.3394 6.82422C42.2548 6.52799 42.1278 6.27897 41.9585 6.07715C41.7925 5.87533 41.5875 5.72233 41.3433 5.61816C41.1024 5.514 40.8241 5.46191 40.5084 5.46191H38.9166V4.48535H40.5084C40.9804 4.48535 41.4117 4.5651 41.8023 4.72461C42.1929 4.88086 42.5298 5.1071 42.813 5.40332C43.0995 5.69954 43.3192 6.05436 43.4722 6.46777C43.6252 6.88118 43.7017 7.34342 43.7017 7.85449V8.23047C43.7017 8.74154 43.6252 9.20378 43.4722 9.61719C43.3192 10.0306 43.0995 10.3854 42.813 10.6816C42.5266 10.9746 42.1848 11.2008 41.7876 11.3604C41.3938 11.5166 40.9527 11.5947 40.4644 11.5947ZM39.6246 4.48535V11.5947H38.399V4.48535H39.6246ZM47.9935 10.5352V8.01562C47.9935 7.82682 47.9593 7.66406 47.891 7.52734C47.8226 7.39062 47.7184 7.28483 47.5785 7.20996C47.4417 7.13509 47.2692 7.09766 47.0609 7.09766C46.8688 7.09766 46.7028 7.13021 46.5628 7.19531C46.4229 7.26042 46.3138 7.34831 46.2357 7.45898C46.1576 7.56966 46.1185 7.69499 46.1185 7.83496H44.9466C44.9466 7.62663 44.9971 7.4248 45.098 7.22949C45.1989 7.03418 45.3454 6.86003 45.5375 6.70703C45.7295 6.55404 45.959 6.43359 46.2259 6.3457C46.4929 6.25781 46.7923 6.21387 47.1244 6.21387C47.5215 6.21387 47.8731 6.2806 48.1791 6.41406C48.4883 6.54753 48.7308 6.74935 48.9066 7.01953C49.0856 7.28646 49.1751 7.62174 49.1751 8.02539V10.374C49.1751 10.6149 49.1914 10.8314 49.224 11.0234C49.2598 11.2122 49.3102 11.3766 49.3753 11.5166V11.5947H48.1693C48.114 11.4678 48.07 11.3066 48.0375 11.1113C48.0082 10.9128 47.9935 10.7207 47.9935 10.5352ZM48.1644 8.38184L48.1742 9.10938H47.3294C47.1113 9.10938 46.9193 9.13053 46.7533 9.17285C46.5873 9.21191 46.4489 9.27051 46.3382 9.34863C46.2276 9.42676 46.1445 9.52116 46.0892 9.63184C46.0339 9.74251 46.0062 9.86784 46.0062 10.0078C46.0062 10.1478 46.0388 10.2764 46.1039 10.3936C46.169 10.5075 46.2634 10.597 46.3871 10.6621C46.514 10.7272 46.667 10.7598 46.846 10.7598C47.0869 10.7598 47.2969 10.7109 47.4759 10.6133C47.6582 10.5124 47.8015 10.3903 47.9056 10.2471C48.0098 10.1006 48.0651 9.96224 48.0716 9.83203L48.4525 10.3545C48.4134 10.488 48.3467 10.6312 48.2523 10.7842C48.1579 10.9372 48.0342 11.0837 47.8812 11.2236C47.7315 11.3604 47.5508 11.4727 47.3392 11.5605C47.1309 11.6484 46.89 11.6924 46.6166 11.6924C46.2715 11.6924 45.9639 11.624 45.6937 11.4873C45.4235 11.3473 45.2119 11.1602 45.0589 10.9258C44.9059 10.6882 44.8294 10.4196 44.8294 10.1201C44.8294 9.84017 44.8815 9.59277 44.9857 9.37793C45.0931 9.15983 45.2494 8.97754 45.4544 8.83105C45.6628 8.68457 45.9167 8.57389 46.2162 8.49902C46.5156 8.4209 46.8574 8.38184 47.2416 8.38184H48.1644ZM51.7873 7.31738V11.5947H50.6105V6.31152H51.7335L51.7873 7.31738ZM53.4035 6.27734L53.3937 7.37109C53.3221 7.35807 53.244 7.34831 53.1593 7.3418C53.0779 7.33529 52.9966 7.33203 52.9152 7.33203C52.7134 7.33203 52.536 7.36133 52.383 7.41992C52.23 7.47526 52.1014 7.55664 51.9972 7.66406C51.8963 7.76823 51.8182 7.89518 51.7628 8.04492C51.7075 8.19466 51.6749 8.3623 51.6652 8.54785L51.3966 8.56738C51.3966 8.23535 51.4292 7.92773 51.4943 7.64453C51.5594 7.36133 51.657 7.1123 51.7873 6.89746C51.9207 6.68262 52.0867 6.51497 52.2853 6.39453C52.4871 6.27409 52.7199 6.21387 52.9835 6.21387C53.0552 6.21387 53.1317 6.22038 53.213 6.2334C53.2977 6.24642 53.3611 6.26107 53.4035 6.27734ZM55.6005 6.31152V11.5947H54.4189V6.31152H55.6005ZM54.3408 4.9248C54.3408 4.74577 54.3994 4.59766 54.5166 4.48047C54.637 4.36003 54.803 4.2998 55.0146 4.2998C55.2229 4.2998 55.3873 4.36003 55.5078 4.48047C55.6282 4.59766 55.6884 4.74577 55.6884 4.9248C55.6884 5.10059 55.6282 5.24707 55.5078 5.36426C55.3873 5.48145 55.2229 5.54004 55.0146 5.54004C54.803 5.54004 54.637 5.48145 54.5166 5.36426C54.3994 5.24707 54.3408 5.10059 54.3408 4.9248Z" fill="white"/>
</svg>
