<svg width="119" height="124" viewBox="0 0 119 124" fill="none" xmlns="http://www.w3.org/2000/svg">
    <g clip-path="url(#clip0_54_2075)">
        <path d="M117.215 47.9233V118.618C117.215 118.725 117.183 118.821 117.109 118.928C113.447 124.662 7.09235 124.705 1.69532 119.066C1.55694 118.928 1.48242 118.767 1.48242 118.618V47.9233H117.215Z" fill="url(#paint0_linear_54_2075)"/>
        <path d="M117.215 47.9238C115.15 50.4227 113.053 52.8361 110.913 55.1748C95.7015 71.7379 78.5204 84.1041 59.3487 92.2628C40.177 84.1041 22.996 71.7379 7.78427 55.1748C5.64462 52.8361 3.54755 50.4227 1.48242 47.9238H117.215Z" fill="url(#paint1_linear_54_2075)"/>
        <path d="M1.48242 47.9233C15.7361 30.6554 31.842 14.1351 49.8321 3.86196C55.7507 0.487419 62.9574 0.487419 68.8654 3.86196C86.8554 14.1351 102.972 30.6554 117.215 47.9233H1.48242Z" fill="url(#paint2_linear_54_2075)"/>
        <path d="M110.913 27.9967V55.1746C95.7014 71.7376 78.5203 84.1038 59.3486 92.2625C40.177 84.1038 22.9959 71.7376 7.78418 55.1746V27.9967C7.78418 24.7289 10.4241 22.0806 13.6815 22.0806H105.026C108.284 22.0806 110.924 24.7289 110.924 27.9967H110.913Z" fill="url(#paint3_linear_54_2075)"/>
        <path d="M117.183 118.597L117.109 118.864C117.023 119.024 116.874 119.173 116.683 119.323C108.603 124.577 10.1688 124.577 2.01472 119.323C1.88698 119.227 1.78053 119.12 1.69537 119.024L1.5144 118.597L52.3124 89.6034C56.6769 87.1153 62.0207 87.1153 66.3851 89.6034L117.183 118.597Z" fill="url(#paint4_linear_54_2075)"/>
        <path d="M117.215 118.511L117.183 118.597L66.3851 89.6032C62.0206 87.115 56.6768 87.115 52.3124 89.6032L1.51436 118.597L1.48242 118.511L52.3124 85.3316C56.6768 82.491 62.0206 82.491 66.3851 85.3316L117.215 118.511Z" fill="url(#paint5_linear_54_2075)"/>
        <path d="M16.0337 32.0264H51.3237" stroke="white" stroke-width="2" stroke-linecap="square" stroke-linejoin="round"/>
        <path d="M16.0337 39.0845H79.0128" stroke="white" stroke-width="2" stroke-linecap="square" stroke-linejoin="round"/>
        <path d="M16.0337 45.0845H59.8296" stroke="white" stroke-width="2" stroke-linecap="square" stroke-linejoin="round"/>
        <path d="M16.0337 51.0845H70.1451" stroke="white" stroke-width="2" stroke-linecap="square" stroke-linejoin="round"/>
        <path d="M33.0454 57.0845H70.145" stroke="white" stroke-width="2" stroke-linecap="square" stroke-linejoin="round"/>
    </g>
    <defs>
        <linearGradient id="paint0_linear_54_2075" x1="103.648" y1="69.6401" x2="19.6679" y2="99.757" gradientUnits="userSpaceOnUse">
            <stop stop-color="#EDEDED"/>
            <stop offset="1" stop-color="#CCCCCC" stop-opacity="0.8"/>
        </linearGradient>
        <linearGradient id="paint1_linear_54_2075" x1="59.3487" y1="47.9238" x2="59.3487" y2="92.2628" gradientUnits="userSpaceOnUse">
            <stop stop-color="#A6A6A6"/>
            <stop offset="1" stop-color="#C2C2C2"/>
        </linearGradient>
        <linearGradient id="paint2_linear_54_2075" x1="35.4288" y1="24.6272" x2="79.8177" y2="16.5839" gradientUnits="userSpaceOnUse">
            <stop stop-color="#A6A6A6"/>
            <stop offset="1" stop-color="#C2C2C2"/>
        </linearGradient>
        <linearGradient id="paint3_linear_54_2075" x1="51.6139" y1="82.7675" x2="66.1639" y2="14.059" gradientUnits="userSpaceOnUse">
            <stop stop-color="#E01535"/>
            <stop offset="1" stop-color="#FF99A8"/>
        </linearGradient>
        <linearGradient id="paint4_linear_54_2075" x1="1.5144" y1="105.5" x2="117.183" y2="105.5" gradientUnits="userSpaceOnUse">
            <stop stop-color="#EDEDED"/>
            <stop offset="1" stop-color="#CCCCCC"/>
        </linearGradient>
        <linearGradient id="paint5_linear_54_2075" x1="1.48242" y1="100.899" x2="117.215" y2="100.899" gradientUnits="userSpaceOnUse">
            <stop stop-color="#A6A6A6"/>
            <stop offset="1" stop-color="#C2C2C2"/>
        </linearGradient>
        <clipPath id="clip0_54_2075">
            <rect width="118" height="123" fill="white" transform="translate(0.354004 0.797363)"/>
        </clipPath>
    </defs>
</svg>