<svg width="163" height="280" viewBox="0 0 163 280" fill="none" xmlns="http://www.w3.org/2000/svg">
<g clip-path="url(#clip0_54_2137)">
<path d="M92.8697 79.4269C91.9612 79.385 90.9081 78.6901 89.4217 77.1704C89.3842 77.1315 89.3636 77.0793 89.3646 77.0252C89.3656 76.9711 89.388 76.9197 89.4269 76.8821C89.4659 76.8446 89.5181 76.824 89.5722 76.825C89.6262 76.826 89.6777 76.8484 89.7153 76.8873C91.2288 78.4366 92.2673 79.0943 93.096 79.0147C94.0879 78.9223 94.8798 77.7925 96.0824 75.9541C96.1124 75.909 96.1589 75.8775 96.2118 75.8663C96.2647 75.8551 96.32 75.865 96.3657 75.894C96.41 75.9246 96.4406 75.9713 96.4511 76.0241C96.4615 76.077 96.451 76.1318 96.4216 76.177C95.1454 78.1136 94.3018 79.3061 93.1261 79.4185C93.0409 79.4271 92.9552 79.43 92.8697 79.4269Z" fill="#242424"/>
<path d="M119.404 120.008L100.158 124.081L72.5062 152.554C72.5062 152.554 44.9963 236.971 45.5487 238.736C45.7462 239.387 49.6454 241.291 54.5193 243.386C58.0183 244.888 62.0128 246.487 65.4965 247.795C70.2428 249.57 74.0387 250.807 74.3129 250.502C75.0951 249.669 83.0855 224.689 83.0855 224.689C83.0855 224.689 128.377 191.121 130.917 181.785C133.458 172.449 119.404 120.008 119.404 120.008ZM106.527 177.309C106.205 178.92 94.3774 185.165 94.3774 185.165L100.363 162.758L104.501 154.821C104.501 154.821 106.849 175.698 106.527 177.309Z" fill="url(#paint0_linear_54_2137)"/>
<path d="M107.217 117.949L106.617 126.017L103.845 163.395L68.1429 156.917L69.006 156.709L69.0425 156.71C72.7015 155.807 76.4937 154.482 79.1489 152.873C80.7291 151.922 81.9037 150.867 82.4067 149.744C84.8211 144.373 76.2589 125.257 74.861 119.535C74.7244 119.089 74.6675 118.623 74.693 118.157C74.7678 117.757 74.8757 117.364 75.0156 116.981L89.5949 117.407L104.657 117.843L107.217 117.949Z" fill="url(#paint1_linear_54_2137)"/>
<path d="M106.406 117.911L103.601 162.266L69.0267 156.697C72.6857 155.793 76.4779 154.469 79.1331 152.86C80.7134 151.909 81.888 150.854 82.391 149.731C84.8054 144.36 76.2432 125.244 74.8452 119.522L89.5751 117.394L104.638 117.83L106.406 117.911Z" fill="url(#paint2_linear_54_2137)"/>
<path d="M82.4072 149.731C81.9042 150.854 80.7296 151.91 79.1494 152.861C76.4859 154.473 72.6767 155.813 69.0059 156.708L68.1428 156.916L57.5466 154.992L50.5657 153.727L53.9181 116.356L57.0434 116.447L75.0322 116.97C74.8924 117.352 74.7845 117.745 74.7097 118.146C74.2203 120.822 85.089 143.763 82.4072 149.731Z" fill="url(#paint3_linear_54_2137)"/>
<path d="M104.816 114.855L102.728 160.039L83.8577 157.484L74.4349 156.203L49.3726 152.81L50.413 112.963L68.4272 113.376L77.2049 113.579L104.816 114.855Z" fill="url(#paint4_linear_54_2137)"/>
<path d="M58.6564 154.369L58.6362 154.368L49.4639 153.03C49.4375 153.027 49.412 153.018 49.3889 153.005C49.3659 152.992 49.3457 152.974 49.3296 152.953C49.3135 152.931 49.3019 152.907 49.2953 152.881C49.2888 152.856 49.2874 152.829 49.2915 152.802C49.2991 152.75 49.3272 152.702 49.3698 152.67C49.4124 152.637 49.4659 152.623 49.5189 152.63L58.6954 153.964C58.7492 153.967 58.7998 153.991 58.8361 154.03C58.8724 154.07 58.8913 154.123 58.8888 154.177C58.8864 154.23 58.8627 154.281 58.8229 154.317C58.7831 154.353 58.7305 154.372 58.6767 154.37L58.6564 154.369Z" fill="#242424"/>
<path d="M85.9741 155.485C85.8783 155.887 84.6948 156.783 83.8496 157.484L74.4267 156.203L67.984 131.853L68.4115 113.363L77.1892 113.566L77.5948 113.585C75.7134 118.59 87.4574 141.503 87.2328 146.276C87.0082 151.049 85.0784 153.935 85.0784 153.935C85.0784 153.935 86.1285 154.87 85.9741 155.485Z" fill="url(#paint5_linear_54_2137)"/>
<path d="M77.7756 89.5283C71.1734 95.2832 68.1338 114.712 68.1338 114.712C68.1338 114.712 50.8487 121.742 45.883 114.245C40.9173 106.749 39.1666 98.1938 39.1666 98.1938C56.0217 94.7538 60.2815 89.8214 60.4303 89.6779C49.1206 96.5118 36.7892 95.1983 36.7892 95.1983L32.0829 86.2222C32.2764 86.345 37.3021 89.4629 54.4149 86.6932C71.88 83.8626 76.3263 66.2704 84.213 75.1129L84.3208 75.1545C84.3804 75.5565 84.4708 75.9533 84.5911 76.3415C84.7974 76.9679 85.1742 77.5243 85.6792 77.9484C85.8305 81.1825 84.3816 83.7777 77.7756 89.5283Z" fill="#242424"/>
<path d="M145.394 56.9599C142.342 63.903 116.786 81.857 117.378 87.8508C117.971 93.8446 124.998 111.191 123.533 115.968C122.404 119.659 111.514 124.163 106.625 126.018L107.225 117.949L104.686 117.832L104.824 114.855L77.213 113.579C76.2557 114.545 75.5102 115.7 75.0242 116.97C74.8843 117.352 74.7764 117.745 74.7016 118.146C74.2081 120.821 85.0769 143.763 82.3951 149.731C81.8921 150.854 80.7175 151.909 79.1372 152.861C76.4738 154.473 72.6645 155.813 68.9937 156.708L68.1306 156.916C62.7571 158.16 57.8978 158.476 57.7275 157.411C57.6794 157.132 57.6172 156.28 57.5507 154.993C57.1582 147.565 56.5719 125.684 57.0353 116.447C57.125 114.505 57.2826 113.118 57.484 112.542C58.8213 108.755 70.4936 93.6343 77.3845 86.9946C84.2755 80.3549 89.4014 79.722 98.8306 78.666L114.101 64.8335C116.753 61.9729 145.586 11.989 146.805 12.5412C146.988 12.6228 147.166 13.517 147.288 15.0021C147.411 16.4872 147.528 18.6141 147.607 21.1133C147.967 32.5872 147.525 52.1039 145.394 56.9599Z" fill="url(#paint6_linear_54_2137)"/>
<path d="M111.963 74.4277C108.53 76.0696 104.275 75.4381 104.275 75.4381L104.515 79.672C104.515 79.672 100.725 79.6189 98.8429 78.6621C98.2233 78.349 97.8773 77.4795 97.6945 76.4225C97.3184 74.2713 97.6081 71.3421 97.5959 70.7279C97.578 69.7963 94.3313 67.4069 95.5403 64.1097C96.7494 60.8125 100.707 63.9135 100.774 67.8305C100.841 71.7476 103.617 64.8811 104.868 59.891C106.473 53.4623 110.785 52.5032 112.024 57.0962C112.207 57.8341 112.308 58.5897 112.326 59.3496C112.396 61.0111 112.246 61.0855 113.672 63.8257C115.098 66.5659 115.4 72.786 111.963 74.4277Z" fill="url(#paint7_linear_54_2137)"/>
<path d="M98.4554 68.2273C98.403 68.225 98.3535 68.2024 98.3174 68.1644C98.2813 68.1263 98.2613 68.0758 98.2616 68.0233C98.2789 67.1218 98.1073 64.7647 97.1398 64.594C97.0869 64.5855 97.0396 64.5563 97.0081 64.513C96.9766 64.4697 96.9634 64.4157 96.9716 64.3627C96.9753 64.3363 96.9844 64.3109 96.9981 64.288C97.0119 64.2652 97.03 64.2453 97.0516 64.2296C97.0732 64.2139 97.0977 64.2027 97.1237 64.1967C97.1497 64.1907 97.1766 64.19 97.2029 64.1946C98.6918 64.43 98.6685 67.6601 98.6515 68.0291C98.6508 68.0558 98.6449 68.082 98.634 68.1064C98.6232 68.1308 98.6076 68.1528 98.5883 68.1711C98.5689 68.1895 98.5462 68.2038 98.5213 68.2134C98.4964 68.2229 98.4699 68.2275 98.4432 68.2268L98.4554 68.2273Z" fill="#242424"/>
<path d="M96.5106 67.3008L96.4741 67.2991C96.422 67.2877 96.3764 67.2563 96.3473 67.2116C96.3182 67.1668 96.3078 67.1125 96.3185 67.0602C96.3224 66.975 96.7702 65.0241 98.157 65.2752C98.2105 65.2847 98.2581 65.315 98.2892 65.3595C98.3203 65.404 98.3324 65.4591 98.3229 65.5125C98.3134 65.566 98.2831 65.6135 98.2386 65.6446C98.1941 65.6757 98.139 65.6879 98.0856 65.6784C97.0819 65.4938 96.7217 67.1317 96.7169 67.1477C96.7054 67.1931 96.6786 67.2331 96.641 67.261C96.6034 67.2889 96.5574 67.3029 96.5106 67.3008Z" fill="#242424"/>
<path d="M112.025 57.0763C110.786 52.4833 106.474 53.4627 104.869 59.8711C103.618 64.8734 100.841 71.7398 100.775 67.8106C100.709 63.8814 96.7507 60.7885 95.5414 64.0897C94.3322 67.391 97.5791 69.7764 97.597 70.7079C97.6087 71.3344 97.3189 74.2636 97.6956 76.4025C94.0867 78.4224 91.4157 78.5266 89.5375 77.7448C87.1053 76.7261 85.9981 74.2119 85.8905 72.4065C85.8183 71.8254 85.9353 71.2365 86.2242 70.7271C87.6177 68.804 87.598 54.452 93.9989 49.0943C100.4 43.7366 109.746 46.859 112.025 57.0763Z" fill="#242424"/>
<path d="M89.5368 77.7609C88.817 79.3534 86.9382 79.0227 85.688 77.9326C85.183 77.5085 84.8062 76.9521 84.5999 76.3257C84.4796 75.9375 84.3892 75.5407 84.3296 75.1387C84.0882 73.5018 84.49 72.1954 85.866 72.4093L85.8903 72.4105C85.997 74.2362 87.1042 76.7503 89.5368 77.7609Z" fill="url(#paint8_linear_54_2137)"/>
<path d="M157.034 12.018C157.008 12.5777 158.91 15.4009 158.108 18.3429C157.528 20.4174 152.566 20.9319 149.682 21.0669C148.526 21.1151 147.701 21.1014 147.649 21.103C147.576 18.6164 147.455 16.5055 147.329 14.9918L147.83 14.5394C149.174 13.3253 152.829 10.0598 154.336 9.02396C156.199 7.74446 161.114 7.27655 162.58 7.84011C164.045 8.40367 157.06 11.4624 157.034 12.018Z" fill="url(#paint9_linear_54_2137)"/>
<path d="M84.0844 154.686C83.8504 155.793 80.3052 155.816 79.9062 156.448C79.5071 157.08 80.3948 161.97 79.2495 162.567C78.1042 163.164 72.9931 164.798 71.8233 163.902C70.9988 163.275 70.4627 161.507 69.8472 159.434C69.5909 158.56 69.3169 157.629 69.0058 156.708C72.6772 155.801 76.4858 154.473 79.1493 152.861C79.2894 152.908 79.4296 152.951 79.5743 152.986C80.4456 153.202 81.3439 153.291 82.2406 153.248C83.7334 153.223 84.3227 153.575 84.0844 154.686Z" fill="url(#paint10_linear_54_2137)"/>
<path opacity="0.22" d="M77.2049 113.579L84.4338 105.87L83.2681 113.859L77.2049 113.579Z" fill="url(#paint11_linear_54_2137)"/>
<path d="M94.357 185.168L83.0896 224.689L87.1867 221.602L96.045 184.258L94.357 185.168Z" fill="#CCCCCC"/>
<path d="M70.3099 275.386C61.3505 273.574 53.8971 263.447 52.4553 262.368C51.0136 261.289 50.229 262.172 48.5293 260.695C46.8295 259.218 45.7372 256.559 47.3203 254.579C48.9033 252.6 51.2197 250.845 51.5382 250.023C51.7508 249.468 53.0231 246.649 53.8326 244.874C54.2219 244.014 54.5064 243.397 54.5064 243.397C56.3755 244.199 58.3855 245.031 60.385 245.827C62.1288 246.525 63.8612 247.207 65.4836 247.806C65.1371 248.915 64.8556 250.043 64.6407 251.185C64.2752 253.2 64.2283 255.007 64.222 257.782C64.2175 260.168 69.0872 266.136 71.6336 270.489C73.5705 273.781 74.1675 276.166 70.3099 275.386Z" fill="url(#paint12_linear_54_2137)"/>
<path opacity="0.22" d="M65.4885 247.794C65.1419 248.903 64.8605 250.031 64.6455 251.173C63.0544 250.425 61.2548 249.525 59.4835 248.541C57.5058 247.468 55.6176 246.238 53.8375 244.862C54.2267 244.002 54.5113 243.385 54.5113 243.385C56.3804 244.187 58.3903 245.019 60.3898 245.815C62.1336 246.513 63.8543 247.186 65.4885 247.794Z" fill="url(#paint13_linear_54_2137)"/>
<path d="M71.6384 270.476C68.3801 272.033 59.1912 263.224 58.6676 257.05C58.4505 254.193 58.7207 251.319 59.4667 248.552C59.7045 247.623 60.0087 246.712 60.3771 245.826C62.1209 246.525 63.8534 247.206 65.4758 247.805C65.1292 248.914 64.8477 250.043 64.6328 251.185C64.2673 253.2 64.2204 255.006 64.2141 257.782C64.2223 260.156 69.0762 266.115 71.6384 270.476Z" fill="url(#paint14_linear_54_2137)"/>
<path d="M65.4884 247.794C65.1419 248.903 64.8604 250.031 64.6455 251.173C63.0543 250.425 61.2548 249.525 59.4835 248.541C59.7212 247.611 60.0254 246.701 60.3938 245.815C62.1336 246.513 63.8542 247.186 65.4884 247.794Z" fill="url(#paint15_linear_54_2137)"/>
<path d="M20.0971 175.859C20.0971 175.859 2.46954 174.114 6.36228 146.336C13.4492 142.493 21.0199 139.173 29.7169 137.165C22.287 149.047 18.1504 157.561 16.5193 163.57C14.5862 170.752 16.2161 174.355 20.0971 175.859Z" fill="url(#paint16_linear_54_2137)"/>
<path d="M40.5579 168.977C40.5579 168.977 31.5882 177.504 20.1093 175.86C16.2281 174.36 14.5984 170.753 16.5435 163.576C19.839 165.789 28.7615 158.373 28.7615 158.373L40.5579 168.977Z" fill="url(#paint17_linear_54_2137)"/>
<path d="M29.4729 196.366L43.1659 190.289C43.1659 190.289 46.6349 206.605 31.8014 213L24.5871 210.805C28.7148 205.297 31.7924 200.087 29.4729 196.366Z" fill="url(#paint18_linear_54_2137)"/>
<path d="M111.235 63.1728C111.096 63.1661 110.964 63.1123 110.86 63.0203C110.755 62.9283 110.685 62.8036 110.661 62.6667C110.661 62.6667 110.408 61.204 109.416 57.7686C109.393 57.6917 109.385 57.611 109.393 57.5312C109.401 57.4513 109.425 57.3738 109.463 57.3031C109.501 57.2324 109.553 57.1699 109.615 57.1191C109.677 57.0683 109.749 57.0302 109.825 57.0071C109.902 56.984 109.983 56.9762 110.063 56.9842C110.143 56.9923 110.22 57.016 110.291 57.054C110.362 57.0919 110.424 57.1435 110.475 57.2056C110.526 57.2678 110.564 57.3394 110.587 57.4162C111.603 60.9381 111.853 62.3925 111.866 62.45C111.893 62.6097 111.855 62.7733 111.761 62.9052C111.668 63.0372 111.526 63.1268 111.366 63.1544L111.235 63.1728Z" fill="#242424"/>
<path d="M107.829 70.3839C107.778 70.3827 107.73 70.3615 107.694 70.3248C106.193 68.7638 105.768 64.9522 106.378 63.6269C106.568 63.2089 106.807 63.1265 107.006 63.1357C107.554 63.161 108.15 63.7982 108.909 64.6055C109.792 65.5486 110.892 66.7293 112.083 66.9916C112.109 66.9972 112.134 67.008 112.156 67.0233C112.178 67.0386 112.197 67.0581 112.211 67.0807C112.226 67.1032 112.236 67.1285 112.24 67.1549C112.245 67.1813 112.244 67.2083 112.238 67.2345C112.225 67.2864 112.193 67.3313 112.148 67.3601C112.103 67.389 112.048 67.3996 111.996 67.3899C110.68 67.0894 109.534 65.8659 108.612 64.8844C107.973 64.2046 107.373 63.5591 106.987 63.5413C106.882 63.5364 106.789 63.6988 106.748 63.7944C106.259 64.8732 106.53 68.5192 107.996 70.042C108.014 70.0617 108.028 70.0849 108.037 70.11C108.046 70.1352 108.05 70.162 108.049 70.1888C108.048 70.2155 108.041 70.2418 108.03 70.266C108.018 70.2902 108.002 70.312 107.982 70.33C107.962 70.3492 107.938 70.3639 107.912 70.3732C107.885 70.3825 107.857 70.3861 107.829 70.3839Z" fill="#242424"/>
<path d="M79.5866 152.987C76.625 155.536 73.3573 157.706 69.8589 159.447C69.6026 158.573 69.3286 157.642 69.0176 156.721C72.6889 155.814 76.4975 154.486 79.161 152.874C79.2894 152.908 79.4297 152.951 79.5866 152.987Z" fill="url(#paint19_linear_54_2137)"/>
<path d="M149.682 21.0667C148.526 21.1149 147.701 21.1012 147.649 21.1028C147.576 18.6162 147.455 16.5052 147.329 14.9916L147.83 14.5392C148.632 16.3605 149.33 19.3597 149.682 21.0667Z" fill="url(#paint20_linear_54_2137)"/>
<path d="M123.379 111.225C123.334 111.223 123.292 111.206 123.258 111.177C123.224 111.149 123.2 111.11 123.191 111.066C123.151 110.881 119.061 92.4234 114.283 82.4604C114.271 82.4364 114.264 82.4103 114.262 82.3836C114.261 82.357 114.265 82.3302 114.273 82.305C114.282 82.2797 114.296 82.2564 114.313 82.2364C114.331 82.2164 114.353 82.2001 114.377 82.1884C114.401 82.1767 114.427 82.1699 114.453 82.1682C114.48 82.1666 114.507 82.1703 114.532 82.179C114.557 82.1877 114.581 82.2013 114.601 82.219C114.621 82.2367 114.637 82.2582 114.649 82.2823C119.47 92.2919 123.545 110.794 123.589 110.979C123.595 111.005 123.595 111.032 123.59 111.058C123.585 111.085 123.575 111.11 123.56 111.132C123.546 111.154 123.527 111.174 123.505 111.189C123.483 111.204 123.458 111.214 123.432 111.22L123.379 111.225Z" fill="#242424"/>
<path d="M97.424 102.511C97.3113 102.505 97.1993 102.49 97.0886 102.467C95.5313 102.131 94.1344 96.0353 93.9633 95.3405C93.952 95.2915 93.9594 95.24 93.984 95.1961C94.0085 95.1522 94.0485 95.1189 94.0962 95.1028C95.5248 94.6201 99.169 93.2441 99.2062 93.2295C99.2336 93.2187 99.2629 93.2138 99.2922 93.2151C99.3216 93.2165 99.3504 93.2241 99.3766 93.2374C99.4023 93.2508 99.4246 93.2699 99.4419 93.2933C99.4591 93.3166 99.4708 93.3435 99.476 93.3721C99.5299 93.6144 100.762 99.3085 100.724 100.132C100.704 100.57 100.27 101.18 99.6081 101.686C98.9925 102.197 98.2237 102.487 97.424 102.511ZM94.3981 95.4297C94.9843 97.9604 96.2144 101.862 97.1725 102.061C97.5665 102.101 97.9646 102.059 98.3412 101.936C98.7178 101.813 99.0647 101.613 99.3595 101.349C99.9746 100.878 100.307 100.36 100.32 100.097C100.348 99.4844 99.5139 95.4548 99.1329 93.6732C98.3506 93.9785 95.7078 94.97 94.3985 95.4216L94.3981 95.4297Z" fill="#242424"/>
<path d="M73.884 250.726C72.72 250.672 70.7181 249.93 67.6605 248.813C66.7615 248.479 65.7705 248.112 64.6871 247.721C59.4614 245.853 46.2559 239.618 46.1251 239.547C46.0984 239.538 46.074 239.523 46.0535 239.503C46.033 239.484 46.0167 239.46 46.0058 239.434C45.9949 239.408 45.9896 239.38 45.9902 239.352C45.9908 239.323 45.9973 239.295 46.0093 239.27C46.0213 239.244 46.0385 239.221 46.0598 239.203C46.0812 239.184 46.1062 239.17 46.1332 239.162C46.1603 239.154 46.1888 239.151 46.2169 239.154C46.245 239.158 46.2721 239.167 46.2964 239.181C46.4317 239.244 59.6222 245.45 64.8229 247.333C65.9103 247.724 66.9013 248.091 67.8004 248.425C71.1372 249.656 73.3389 250.474 74.2814 250.306C75.2265 249.732 80.4117 233.035 83.6589 221.956C83.6658 221.93 83.6779 221.906 83.6943 221.885C83.7108 221.863 83.7312 221.846 83.7546 221.833C83.7779 221.82 83.8037 221.812 83.8303 221.809C83.8568 221.806 83.8836 221.809 83.9092 221.817C83.9607 221.832 84.0042 221.866 84.0302 221.913C84.0562 221.96 84.0626 222.015 84.048 222.067C84.0446 222.14 81.9495 229.221 79.7355 236.235C75.2417 250.545 74.631 250.655 74.3401 250.707C74.1891 250.728 74.0363 250.735 73.884 250.726Z" fill="#242424"/>
<path d="M102.921 160.271L83.8402 157.687C83.7873 157.679 83.7396 157.651 83.7073 157.608C83.675 157.566 83.6609 157.512 83.6678 157.459C83.6755 157.406 83.7034 157.358 83.7459 157.325C83.7884 157.292 83.842 157.277 83.8954 157.283L102.548 159.807L104.625 114.846C104.628 114.792 104.651 114.741 104.691 114.705C104.731 114.669 104.784 114.65 104.837 114.652C104.891 114.655 104.942 114.679 104.978 114.718C105.014 114.758 105.033 114.811 105.031 114.865L102.921 160.271Z" fill="#242424"/>
<path d="M78.0513 163.256C78.016 163.254 77.9817 163.244 77.9511 163.227C76.6389 162.252 75.7664 160.797 75.5246 159.18C75.5199 159.154 75.5204 159.127 75.5261 159.101C75.5319 159.074 75.5427 159.05 75.5581 159.028C75.5734 159.006 75.593 158.987 75.6157 158.973C75.6383 158.958 75.6636 158.949 75.69 158.944C75.7161 158.939 75.7429 158.94 75.7689 158.946C75.7948 158.951 75.8193 158.962 75.8409 158.978C75.8625 158.993 75.8809 159.013 75.8948 159.035C75.9088 159.058 75.9181 159.083 75.9222 159.109C76.1607 160.61 76.9727 161.959 78.1869 162.872C78.224 162.896 78.252 162.932 78.2668 162.974C78.2816 163.015 78.2822 163.061 78.2688 163.103C78.2553 163.145 78.2284 163.182 78.1922 163.207C78.1559 163.233 78.1124 163.246 78.0681 163.244L78.0513 163.256Z" fill="#242424"/>
<path d="M74.649 163.099C74.6082 163.097 74.569 163.083 74.5371 163.057C74.4781 163.014 73.108 161.963 73.032 160.439C73.0305 160.412 73.0342 160.385 73.0431 160.36C73.052 160.335 73.0658 160.311 73.0837 160.291C73.1017 160.271 73.1234 160.255 73.1476 160.244C73.1718 160.232 73.1981 160.226 73.2249 160.224C73.278 160.223 73.3295 160.243 73.3687 160.279C73.4079 160.314 73.4318 160.364 73.4355 160.417C73.504 161.749 74.7679 162.726 74.7797 162.735C74.8012 162.751 74.8193 162.771 74.833 162.795C74.8467 162.818 74.8556 162.843 74.8593 162.87C74.863 162.897 74.8614 162.924 74.8545 162.95C74.8476 162.976 74.8357 163 74.8193 163.022C74.7994 163.047 74.7735 163.068 74.7438 163.082C74.7141 163.095 74.6816 163.101 74.649 163.099Z" fill="#242424"/>
<path d="M71.1089 270.675C64.0682 270.35 58.7642 259.883 58.4627 257.085C58.4599 257.059 58.4623 257.032 58.4699 257.006C58.4775 256.981 58.4901 256.957 58.5069 256.936C58.5237 256.915 58.5445 256.898 58.5679 256.886C58.5914 256.873 58.6172 256.865 58.6437 256.862C58.6701 256.859 58.6969 256.861 58.7225 256.868C58.7481 256.875 58.772 256.887 58.7928 256.903C58.8136 256.92 58.831 256.94 58.8437 256.964C58.8565 256.987 58.8645 257.013 58.8672 257.039C59.1463 259.795 64.3599 270.108 71.261 270.284L66.4954 263.033C66.4657 262.988 66.4551 262.933 66.4659 262.88C66.4767 262.827 66.5081 262.781 66.5531 262.751C66.5981 262.721 66.6531 262.711 66.706 262.721C66.7589 262.732 66.8052 262.764 66.8349 262.809L71.8054 270.378C71.8226 270.41 71.8308 270.445 71.8292 270.481C71.8275 270.517 71.816 270.552 71.796 270.581C71.7786 270.613 71.7533 270.64 71.7225 270.659C71.6917 270.678 71.6565 270.689 71.6202 270.691C71.4621 270.684 71.3035 270.684 71.1089 270.675Z" fill="#242424"/>
<path d="M33.3243 168.167C33.2774 168.165 33.2326 168.147 33.1965 168.117L27.2913 162.747C27.2514 162.711 27.2277 162.66 27.2252 162.606C27.2228 162.553 27.2418 162.5 27.2781 162.46C27.3145 162.42 27.3651 162.397 27.419 162.394C27.4728 162.392 27.5254 162.411 27.5653 162.447L33.4696 167.837C33.4997 167.865 33.5206 167.902 33.5292 167.942C33.5379 167.983 33.534 168.025 33.5181 168.063C33.5022 168.101 33.475 168.133 33.4402 168.156C33.4054 168.178 33.3647 168.189 33.3234 168.188L33.3243 168.167Z" fill="#242424"/>
<path d="M27.4532 167.51C27.4004 167.507 27.3507 167.484 27.3138 167.446L24.2913 164.34C24.2556 164.3 24.2371 164.247 24.2396 164.193C24.2421 164.139 24.2654 164.089 24.3046 164.052C24.3243 164.034 24.3474 164.02 24.3726 164.011C24.3978 164.001 24.4245 163.997 24.4513 163.999C24.4781 164 24.5043 164.006 24.5286 164.018C24.5528 164.029 24.5745 164.045 24.5925 164.065L27.6191 167.172C27.6373 167.192 27.6514 167.215 27.6605 167.24C27.6697 167.265 27.6737 167.292 27.6725 167.319C27.6713 167.346 27.6647 167.372 27.6533 167.396C27.6419 167.42 27.6257 167.442 27.6058 167.46C27.5854 167.479 27.5612 167.493 27.5349 167.501C27.5085 167.51 27.4807 167.513 27.4532 167.51Z" fill="#242424"/>
<path d="M154.937 13.5223C154.897 13.5206 154.859 13.5074 154.827 13.4842C154.794 13.4611 154.77 13.429 154.756 13.392C154.737 13.3415 154.739 13.2858 154.761 13.2368C154.783 13.1877 154.823 13.1492 154.873 13.1292C156.293 12.6102 157.823 12.468 159.314 12.7166C159.34 12.7218 159.365 12.7321 159.387 12.7469C159.409 12.7618 159.428 12.781 159.443 12.8032C159.457 12.8255 159.467 12.8504 159.472 12.8766C159.476 12.9027 159.476 12.9296 159.47 12.9555C159.465 12.9817 159.455 13.0066 159.44 13.0288C159.425 13.051 159.406 13.0701 159.384 13.0849C159.361 13.0997 159.337 13.11 159.31 13.1152C159.284 13.1204 159.257 13.1204 159.231 13.1151C157.816 12.8896 156.367 13.0254 155.018 13.5098C154.992 13.5202 154.964 13.5245 154.937 13.5223Z" fill="#242424"/>
<path d="M156.142 15.1387C156.093 15.1361 156.047 15.1162 156.011 15.0825C155.976 15.0489 155.953 15.0036 155.948 14.9549C155.945 14.928 155.947 14.9009 155.955 14.8751C155.963 14.8492 155.976 14.8252 155.993 14.8045C156.011 14.7837 156.032 14.7665 156.056 14.7541C156.08 14.7416 156.106 14.734 156.133 14.7318C156.989 14.6781 157.849 14.7178 158.696 14.8502C158.723 14.8546 158.748 14.8642 158.771 14.8785C158.794 14.8927 158.814 14.9113 158.829 14.9331C158.845 14.955 158.856 14.9797 158.862 15.0059C158.868 15.032 158.869 15.0591 158.864 15.0856C158.86 15.1121 158.85 15.1374 158.836 15.1602C158.822 15.183 158.803 15.2028 158.781 15.2184C158.76 15.234 158.735 15.2451 158.709 15.2511C158.683 15.2572 158.655 15.258 158.629 15.2536C157.815 15.1255 156.989 15.0873 156.167 15.1398L156.142 15.1387Z" fill="#242424"/>
<path d="M47.2674 84.278C45.8636 84.233 44.4655 84.076 43.0866 83.8084C43.0344 83.7961 42.9893 83.7637 42.9609 83.7183C42.9326 83.6728 42.9234 83.6179 42.9353 83.5657C42.9403 83.5393 42.9508 83.5143 42.966 83.4921C42.9812 83.47 43.0008 83.4512 43.0235 83.437C43.0463 83.4228 43.0718 83.4134 43.0984 83.4095C43.125 83.4056 43.1521 83.4073 43.178 83.4143C43.2987 83.4402 55.6495 86.1812 71.0999 78.5754C71.1239 78.56 71.151 78.5498 71.1792 78.5455C71.2075 78.5413 71.2363 78.543 71.2639 78.5506C71.2914 78.5583 71.3171 78.5717 71.3391 78.5899C71.3611 78.6082 71.379 78.6308 71.3916 78.6565C71.4043 78.6821 71.4114 78.7102 71.4124 78.7387C71.4135 78.7673 71.4085 78.7958 71.3978 78.8223C71.3871 78.8488 71.3709 78.8727 71.3503 78.8925C71.3297 78.9124 71.3051 78.9276 71.2782 78.9373C61.0847 83.9572 52.2194 84.5068 47.2674 84.278Z" fill="#242424"/>
<path d="M86.3221 72.6538C86.2871 72.6524 86.253 72.642 86.2232 72.6235C86.1935 72.605 86.169 72.5792 86.1522 72.5484C86.1259 72.5025 83.5316 67.6924 90.5461 62.424C90.5676 62.4077 90.5921 62.3959 90.6182 62.3891C90.6443 62.3824 90.6715 62.3809 90.6982 62.3848C90.7248 62.3886 90.7505 62.3978 90.7736 62.4117C90.7967 62.4256 90.8168 62.444 90.8327 62.4657C90.8644 62.5088 90.8778 62.5626 90.8701 62.6156C90.8623 62.6685 90.834 62.7162 90.7913 62.7483C84.0796 67.795 86.4056 72.1659 86.5067 72.3535C86.5203 72.3763 86.529 72.4016 86.5325 72.428C86.5359 72.4543 86.534 72.4811 86.5267 72.5066C86.5194 72.5322 86.507 72.556 86.4902 72.5765C86.4735 72.5971 86.4526 72.614 86.429 72.6263C86.3966 72.6452 86.3596 72.6547 86.3221 72.6538Z" fill="#242424"/>
<path d="M113.153 52.6292C113.109 52.6275 113.066 52.611 113.032 52.5821C112.998 52.5533 112.974 52.5138 112.965 52.4701C112.967 52.4295 111.867 48.2737 102.136 47.5844C102.082 47.5819 102.032 47.5581 101.996 47.5183C101.959 47.4786 101.94 47.426 101.943 47.3722C101.945 47.3184 101.969 47.2678 102.009 47.2316C102.049 47.1953 102.101 47.1763 102.155 47.1788C112.222 47.8959 113.303 52.1971 113.351 52.3823C113.363 52.4345 113.353 52.4891 113.324 52.5342C113.296 52.5793 113.25 52.6112 113.198 52.6231L113.153 52.6292Z" fill="#242424"/>
</g>
<defs>
<linearGradient id="paint0_linear_54_2137" x1="65.2782" y1="211.088" x2="130.024" y2="134.959" gradientUnits="userSpaceOnUse">
<stop stop-color="#EDEDED"/>
<stop offset="1" stop-color="#CCCCCC"/>
</linearGradient>
<linearGradient id="paint1_linear_54_2137" x1="68.9715" y1="138.983" x2="106.166" y2="140.701" gradientUnits="userSpaceOnUse">
<stop stop-color="#F9F9F9"/>
<stop offset="1" stop-color="#EDEDED"/>
</linearGradient>
<linearGradient id="paint2_linear_54_2137" x1="89.9065" y1="164.758" x2="85.8439" y2="113.527" gradientUnits="userSpaceOnUse">
<stop stop-color="#EDEDED"/>
<stop offset="0.37" stop-color="#EAEAEA"/>
<stop offset="0.68" stop-color="#DFDFDF"/>
<stop offset="0.97" stop-color="#CECECE"/>
<stop offset="1" stop-color="#CCCCCC"/>
</linearGradient>
<linearGradient id="paint3_linear_54_2137" x1="51.4006" y1="136.008" x2="83.2942" y2="137.482" gradientUnits="userSpaceOnUse">
<stop stop-color="#F9F9F9"/>
<stop offset="1" stop-color="#EDEDED"/>
</linearGradient>
<linearGradient id="paint4_linear_54_2137" x1="49.3977" y1="134.936" x2="103.772" y2="137.449" gradientUnits="userSpaceOnUse">
<stop stop-color="#F9F9F9"/>
<stop offset="1" stop-color="#EDEDED"/>
</linearGradient>
<linearGradient id="paint5_linear_54_2137" x1="79.2409" y1="159.238" x2="75.2385" y2="108.724" gradientUnits="userSpaceOnUse">
<stop stop-color="#EDEDED"/>
<stop offset="0.37" stop-color="#EAEAEA"/>
<stop offset="0.68" stop-color="#DFDFDF"/>
<stop offset="0.97" stop-color="#CECECE"/>
<stop offset="1" stop-color="#CCCCCC"/>
</linearGradient>
<linearGradient id="paint6_linear_54_2137" x1="80.6863" y1="94.8775" x2="175.979" y2="59.5801" gradientUnits="userSpaceOnUse">
<stop stop-color="#E01535"/>
<stop offset="1" stop-color="#FF99A8"/>
</linearGradient>
<linearGradient id="paint7_linear_54_2137" x1="95.2267" y1="66.4118" x2="114.759" y2="67.3143" gradientUnits="userSpaceOnUse">
<stop stop-color="#FFE2CA"/>
<stop offset="1" stop-color="#FFC692"/>
</linearGradient>
<linearGradient id="paint8_linear_54_2137" x1="86.82" y1="75.9528" x2="81.9537" y2="72.3749" gradientUnits="userSpaceOnUse">
<stop stop-color="#FA2C43"/>
<stop offset="1" stop-color="#FF99A8"/>
</linearGradient>
<linearGradient id="paint9_linear_54_2137" x1="147.349" y1="14.0376" x2="162.448" y2="14.7352" gradientUnits="userSpaceOnUse">
<stop stop-color="#FFE2CA"/>
<stop offset="1" stop-color="#FFC692"/>
</linearGradient>
<linearGradient id="paint10_linear_54_2137" x1="68.9376" y1="158.185" x2="83.9233" y2="158.877" gradientUnits="userSpaceOnUse">
<stop stop-color="#FFE2CA"/>
<stop offset="1" stop-color="#FFC692"/>
</linearGradient>
<linearGradient id="paint11_linear_54_2137" x1="77.3904" y1="109.564" x2="84.2485" y2="109.881" gradientUnits="userSpaceOnUse">
<stop/>
<stop offset="0.99" stop-opacity="0"/>
</linearGradient>
<linearGradient id="paint12_linear_54_2137" x1="41.2898" y1="239.515" x2="74.2512" y2="270.394" gradientUnits="userSpaceOnUse">
<stop stop-color="#E01535"/>
<stop offset="1" stop-color="#FF99A8"/>
</linearGradient>
<linearGradient id="paint13_linear_54_2137" x1="53.1211" y1="236.879" x2="60.9849" y2="248.24" gradientUnits="userSpaceOnUse">
<stop/>
<stop offset="0.99" stop-opacity="0"/>
</linearGradient>
<linearGradient id="paint14_linear_54_2137" x1="58.4369" y1="257.909" x2="72.1897" y2="258.545" gradientUnits="userSpaceOnUse">
<stop stop-color="#FFE2CA"/>
<stop offset="1" stop-color="#FFC692"/>
</linearGradient>
<linearGradient id="paint15_linear_54_2137" x1="70.6768" y1="251.614" x2="57.5494" y2="246.594" gradientUnits="userSpaceOnUse">
<stop stop-color="#FFC692"/>
<stop offset="1" stop-color="#F2A37C"/>
</linearGradient>
<linearGradient id="paint16_linear_54_2137" x1="5.68097" y1="155.628" x2="28.8266" y2="156.697" gradientUnits="userSpaceOnUse">
<stop stop-color="#E01535"/>
<stop offset="1" stop-color="#FF99A8"/>
</linearGradient>
<linearGradient id="paint17_linear_54_2137" x1="40.4718" y1="167.059" x2="16.7278" y2="167.327" gradientUnits="userSpaceOnUse">
<stop stop-color="#F9F9F9"/>
<stop offset="1" stop-color="#EDEDED"/>
</linearGradient>
<linearGradient id="paint18_linear_54_2137" x1="32.9984" y1="186.125" x2="34.9692" y2="216.129" gradientUnits="userSpaceOnUse">
<stop stop-color="#E01535"/>
<stop offset="1" stop-color="#FF99A8"/>
</linearGradient>
<linearGradient id="paint19_linear_54_2137" x1="69.7128" y1="157.948" x2="78.699" y2="154.076" gradientUnits="userSpaceOnUse">
<stop stop-color="#FFC692"/>
<stop offset="1" stop-color="#F2A37C"/>
</linearGradient>
<linearGradient id="paint20_linear_54_2137" x1="149.485" y1="21.7404" x2="146.358" y2="14.8248" gradientUnits="userSpaceOnUse">
<stop stop-color="#FFC692"/>
<stop offset="1" stop-color="#F2A37C"/>
</linearGradient>
<clipPath id="clip0_54_2137">
<rect width="150.098" height="271.759" fill="white" transform="translate(12.8357 0.774902) rotate(2.64536)"/>
</clipPath>
</defs>
</svg>
