<svg width="18" height="13" viewBox="0 0 18 13" fill="none" xmlns="http://www.w3.org/2000/svg">
<path d="M8.24828 4.6275L5.31299 3.78638L5.35152 6.54096L8.28549 7.38208L8.24828 4.6275Z" stroke="#E01535" stroke-linecap="round" stroke-linejoin="round"/>
<path d="M13.5581 4.60761L8.2855 7.38212L8.24829 4.62754L13.5209 1.85303L13.5581 4.60761Z" stroke="#E01535" stroke-linecap="round" stroke-linejoin="round"/>
<path d="M13.5209 1.85295L10.5856 1.0105L5.31299 3.78634L8.24828 4.62746L13.5209 1.85295Z" stroke="#E01535" stroke-linecap="round" stroke-linejoin="round"/>
<path d="M9.63305 9.06023L6.69775 8.21777L6.73629 10.9724L9.67026 11.8148L9.63305 9.06023Z" stroke="#E01535" stroke-linecap="round" stroke-linejoin="round"/>
<path d="M16.5308 8.20331L9.67026 11.815L9.63306 9.06038L16.4936 5.44873L16.5308 8.20331Z" stroke="#E01535" stroke-linecap="round" stroke-linejoin="round"/>
<path d="M16.4936 5.44855L13.5583 4.60742L6.69775 8.21774L9.63305 9.0602L16.4936 5.44855Z" stroke="#E01535" stroke-linecap="round" stroke-linejoin="round"/>
<path d="M4.3391 7.80583L1.40381 6.96338L1.44234 9.71796L4.37631 10.5604L4.3391 7.80583Z" stroke="#E01535" stroke-linecap="round" stroke-linejoin="round"/>
<path d="M6.71366 9.33003L4.37632 10.5605L4.33911 7.80591" stroke="#E01535" stroke-linecap="round" stroke-linejoin="round"/>
<path d="M5.32905 4.89844L1.40381 6.96338L4.3391 7.80583L6.25123 6.79861" stroke="#E01535" stroke-linecap="round" stroke-linejoin="round"/>
</svg>
