<svg width="18" height="13" viewBox="0 0 18 13" fill="none" xmlns="http://www.w3.org/2000/svg">
<path d="M16.5942 3.14603C16.5942 3.53954 16.2782 3.91056 15.7198 4.23536C14.8728 4.73131 13.4636 5.12107 11.7534 5.32469C11.7172 5.32969 11.6797 5.33344 11.6435 5.33843C11.0976 5.39965 10.5217 5.44337 9.92332 5.46461C9.62976 5.47585 9.33244 5.48085 9.02887 5.48085C8.06822 5.48085 7.14879 5.42588 6.30555 5.32469C4.59786 5.12107 3.18748 4.73256 2.33925 4.23536C1.78209 3.91056 1.46729 3.53954 1.46729 3.14603C1.46729 1.85683 4.85395 0.813721 9.02887 0.813721C13.2038 0.813721 16.593 1.85808 16.593 3.14603H16.5942Z" stroke="#E01535" stroke-linecap="round" stroke-linejoin="round"/>
<path d="M9.03132 5.48086C9.33488 5.48086 9.6322 5.47587 9.92577 5.46462H9.90203V7.64078C9.61721 7.65202 9.32614 7.65702 9.03132 7.65702C8.07441 7.65702 7.15622 7.60206 6.31424 7.50212C4.6028 7.29849 3.19116 6.90998 2.34169 6.41279C1.78453 6.08799 1.46973 5.71697 1.46973 5.32346C1.46973 4.92995 1.78453 4.55893 2.34169 4.23413C3.18866 4.73008 4.59905 5.11983 6.30799 5.32346C7.15247 5.42465 8.07066 5.47961 9.03132 5.47961V5.48086Z" stroke="#E01535" stroke-linecap="round" stroke-linejoin="round"/>
<path d="M16.5943 5.32346C16.5943 5.71697 16.2782 6.08799 15.7198 6.41279C14.8703 6.90873 13.4599 7.29849 11.7472 7.50212C11.7123 7.50586 11.6785 7.51086 11.6436 7.51336V5.3372C11.6798 5.3322 11.7173 5.32846 11.7535 5.32346C13.4637 5.11983 14.8716 4.73132 15.7198 4.23413C16.2769 4.55893 16.5943 4.92995 16.5943 5.32346Z" stroke="#E01535" stroke-linecap="round" stroke-linejoin="round"/>
<path d="M15.7211 4.23544C14.8741 4.73139 13.465 5.12115 11.7548 5.32477C11.7185 5.32977 11.6811 5.33352 11.6448 5.33851C11.0989 5.39973 10.523 5.44345 9.92465 5.46469C9.63108 5.47593 9.33377 5.48093 9.0302 5.48093C8.06954 5.48093 7.15011 5.42596 6.30688 5.32477C4.59918 5.12115 3.1888 4.73264 2.34058 4.23544C3.6073 3.4959 6.12824 2.99121 9.0302 2.99121C11.9322 2.99121 14.4531 3.4959 15.7198 4.23544H15.7211Z" stroke="#E01535" stroke-linecap="round" stroke-linejoin="round"/>
<path d="M11.7548 5.32339C11.7185 5.32839 11.6811 5.33213 11.6448 5.33713C11.0989 5.39834 10.523 5.44207 9.92465 5.4633C9.63109 5.47455 9.33377 5.47954 9.03021 5.47954C8.06955 5.47954 7.15012 5.42458 6.30688 5.32339C7.15136 5.2222 8.06955 5.16724 9.03021 5.16724C9.99086 5.16724 10.9103 5.2222 11.7535 5.32339H11.7548Z" stroke="#E01535" stroke-linecap="round" stroke-linejoin="round"/>
<path d="M9.03132 7.65707C9.32614 7.65707 9.61721 7.65208 9.90203 7.64084V9.82074C9.61721 9.83074 9.32614 9.83573 9.03132 9.83573C6.12936 9.83573 3.60841 9.33104 2.34169 8.5915C1.78453 8.2667 1.46973 7.89568 1.46973 7.50217C1.46973 7.10866 1.78453 6.73764 2.34169 6.41284C3.19116 6.90879 4.6028 7.29855 6.31424 7.50217C7.15622 7.60211 8.07441 7.65707 9.03132 7.65707Z" stroke="#E01535" stroke-linecap="round" stroke-linejoin="round"/>
<path d="M16.5943 7.50214C16.5943 7.89565 16.2782 8.26667 15.7198 8.59147C14.8541 9.09616 13.4025 9.49217 11.6436 9.69204V7.51463C11.6785 7.51089 11.7123 7.50589 11.7472 7.50339C13.4599 7.29977 14.8703 6.91126 15.7198 6.41406C16.2769 6.73886 16.5943 7.10988 16.5943 7.50339V7.50214Z" stroke="#E01535" stroke-linecap="round" stroke-linejoin="round"/>
<path d="M9.03132 9.83457C9.32614 9.83457 9.61721 9.82957 9.90203 9.81957V11.997C9.61721 12.007 9.32614 12.012 9.03132 12.012C4.85639 12.012 1.46973 10.9664 1.46973 9.67966C1.46973 9.28615 1.78453 8.91513 2.34169 8.59033C3.60841 9.32988 6.12936 9.83457 9.03132 9.83457Z" stroke="#E01535" stroke-linecap="round" stroke-linejoin="round"/>
<path d="M10.3081 11.9783L11.6323 11.8696C11.2076 11.9183 10.7653 11.9546 10.3081 11.9783Z" stroke="#E01535" stroke-linecap="round" stroke-linejoin="round"/>
<path d="M16.5942 9.67963C16.5942 10.684 14.533 11.541 11.6448 11.8695V9.69212C13.4024 9.49225 14.854 9.09624 15.721 8.59155C16.2782 8.91635 16.5955 9.28737 16.5955 9.68088L16.5942 9.67963Z" stroke="#E01535" stroke-linecap="round" stroke-linejoin="round"/>
<path d="M11.6448 5.33716V11.8681H11.6311L10.3069 11.9781C10.1732 11.9843 10.037 11.9918 9.90088 11.9968V5.46583H9.92461C10.5217 5.44209 11.0989 5.39962 11.6448 5.33716Z" stroke="#E01535" stroke-linecap="round" stroke-linejoin="round"/>
<path d="M9.9021 11.997C10.0383 11.992 10.1757 11.9858 10.3081 11.9783L9.9021 12.012V11.997Z" stroke="#E01535" stroke-linecap="round" stroke-linejoin="round"/>
<path d="M11.6447 5.32349V5.33723C11.0988 5.39844 10.5229 5.44216 9.92456 5.4634L11.6447 5.32349Z" stroke="#E01535" stroke-linecap="round" stroke-linejoin="round"/>
</svg>
