<svg width="12" height="13" viewBox="0 0 12 13" fill="none" xmlns="http://www.w3.org/2000/svg">
<path d="M4.03149 11.4423C3.71074 11.9903 3.00414 12.1749 2.45495 11.8542C1.90577 11.5334 1.72231 10.8268 2.04307 10.2788C2.365 9.72965 3.07042 9.54501 3.6196 9.86576C4.16878 10.1865 4.35342 10.8931 4.03149 11.4435V11.4423Z" stroke="#747474" stroke-linecap="round" stroke-linejoin="round"/>
<path d="M9.23916 2.54894L4.03139 11.4436C4.35332 10.8944 4.16869 10.1878 3.6195 9.86587C3.07032 9.54393 2.3649 9.72975 2.04297 10.2789L7.25074 1.3843C7.57268 0.835113 8.27809 0.650474 8.82728 0.971226C9.37646 1.29198 9.5611 1.99858 9.23916 2.54894Z" stroke="#747474" stroke-linecap="round" stroke-linejoin="round"/>
<path d="M7.24487 10.5168C6.92412 11.0648 6.21751 11.2494 5.66833 10.9286C5.11915 10.6079 4.93569 9.90129 5.25644 9.35329C5.57838 8.80411 6.2838 8.61947 6.83298 8.94022C7.38216 9.26215 7.5668 9.96757 7.24487 10.5179V10.5168Z" stroke="#747474" stroke-linecap="round" stroke-linejoin="round"/>
<path d="M10.7896 4.46276L7.24477 10.5168C7.56671 9.96762 7.38207 9.26102 6.83288 8.93908C6.28488 8.61833 5.57828 8.80297 5.25635 9.35215L8.80118 3.29812C9.12312 2.74893 9.82853 2.56429 10.3777 2.88504C10.9269 3.20698 11.1115 3.9124 10.7896 4.46276Z" stroke="#747474" stroke-linecap="round" stroke-linejoin="round"/>
<path d="M2.69529 9.16517C2.37454 9.71317 1.66794 9.89781 1.11875 9.57706C0.570752 9.25631 0.386114 8.54971 0.706865 8.00171C1.02762 7.45371 1.73422 7.26789 2.2834 7.58864C2.83258 7.90939 3.01722 8.61599 2.69529 9.16636V9.16517Z" stroke="#747474" stroke-linecap="round" stroke-linejoin="round"/>
<path d="M6.24005 3.1112L2.69521 9.16524C3.01715 8.61605 2.83251 7.90945 2.28332 7.58752C1.73414 7.26558 1.02872 7.45141 0.706787 8.00059L4.25162 1.94655C4.57356 1.39737 5.27898 1.21273 5.82816 1.53348C6.37734 1.85423 6.56198 2.56083 6.24005 3.1112Z" stroke="#747474" stroke-linecap="round" stroke-linejoin="round"/>
</svg>
