<svg width="43" height="36" viewBox="0 0 43 36" fill="none" xmlns="http://www.w3.org/2000/svg">
<path d="M28.0501 6.62881H1.36987V23.152H28.0501V6.62881Z" fill="url(#paint0_linear_8_772)"/>
<path d="M28.0501 1.33521H1.36987V23.1467H28.0501V1.33521Z" stroke="#373737" stroke-width="2" stroke-linecap="round" stroke-linejoin="round"/>
<path d="M41.0425 10.1649H28.0554V23.152H41.0425V10.1649Z" stroke="#373737" stroke-width="2" stroke-linecap="round" stroke-linejoin="round"/>
<path d="M41.0425 10.1649H28.0554V16.6585H41.0425V10.1649Z" stroke="#373737" stroke-width="2" stroke-linecap="round" stroke-linejoin="round"/>
<path d="M8.044 34.4012C10.3312 34.4012 12.1854 32.547 12.1854 30.2598C12.1854 27.9726 10.3312 26.1184 8.044 26.1184C5.75676 26.1184 3.90259 27.9726 3.90259 30.2598C3.90259 32.547 5.75676 34.4012 8.044 34.4012Z" stroke="#373737" stroke-width="2" stroke-linecap="round" stroke-linejoin="round"/>
<path d="M33.0413 34.4012C35.3286 34.4012 37.1827 32.547 37.1827 30.2598C37.1827 27.9726 35.3286 26.1184 33.0413 26.1184C30.7541 26.1184 28.8999 27.9726 28.8999 30.2598C28.8999 32.547 30.7541 34.4012 33.0413 34.4012Z" stroke="#373737" stroke-width="2" stroke-linecap="round" stroke-linejoin="round"/>
<defs>
<linearGradient id="paint0_linear_8_772" x1="15.0419" y1="27.3837" x2="14.5268" y2="7.88186" gradientUnits="userSpaceOnUse">
<stop stop-color="#E01535"/>
<stop offset="1" stop-color="white" stop-opacity="0"/>
</linearGradient>
</defs>
</svg>
