<svg width="52" height="49" viewBox="0 0 52 49" fill="none" xmlns="http://www.w3.org/2000/svg">
<path d="M20.353 28.6464V45.6586V28.6464L34.3699 22.1093V32.1493V39.1215L20.353 45.6586" fill="url(#paint0_linear_1_649)"/>
<path d="M20.3531 28.6464V45.6586V28.6464L6.33618 22.1093V32.1493V39.1215L20.3531 45.6586" fill="url(#paint1_linear_1_649)"/>
<path d="M44.5607 37.3367C46.9604 37.3367 48.9057 35.3913 48.9057 32.9916C48.9057 30.5919 46.9604 28.6465 44.5607 28.6465C42.1609 28.6465 40.2156 30.5919 40.2156 32.9916C40.2156 35.3913 42.1609 37.3367 44.5607 37.3367Z" stroke="#373737" stroke-width="2" stroke-linecap="round" stroke-linejoin="round"/>
<path d="M42.1286 41.1796H46.9924C49.1454 41.1796 50.8912 42.9254 50.8912 45.0784V47.1087H38.2241V45.0784C38.2241 42.9254 39.97 41.1796 42.123 41.1796H42.1286Z" stroke="#373737" stroke-width="2" stroke-linecap="round" stroke-linejoin="round"/>
<path d="M20.353 28.6464L34.3699 22.1093" stroke="#373737" stroke-width="2" stroke-linecap="round" stroke-linejoin="round"/>
<path d="M34.3699 22.1094L20.353 15.5723" stroke="#373737" stroke-width="2" stroke-linecap="round" stroke-linejoin="round"/>
<path d="M20.3531 28.6464L6.33618 22.1093" stroke="#373737" stroke-width="2" stroke-linecap="round" stroke-linejoin="round"/>
<path d="M20.3531 45.6586L6.33618 39.1215V32.1493" stroke="#373737" stroke-width="2" stroke-linecap="round" stroke-linejoin="round"/>
<path d="M6.33618 22.1094L20.3531 15.5723" stroke="#373737" stroke-width="2" stroke-linecap="round" stroke-linejoin="round"/>
<path d="M39.6075 19.6661L25.5906 13.129" stroke="#373737" stroke-width="2" stroke-linecap="round" stroke-linejoin="round"/>
<path d="M20.353 15.572L25.5905 13.129" stroke="#373737" stroke-width="2" stroke-linecap="round" stroke-linejoin="round"/>
<path d="M34.3699 22.1093L39.6074 19.6663" stroke="#373737" stroke-width="2" stroke-linecap="round" stroke-linejoin="round"/>
<path d="M1.09863 19.6661L15.1156 13.129" stroke="#373737" stroke-width="2" stroke-linecap="round" stroke-linejoin="round"/>
<path d="M20.353 15.5721L15.1155 13.129" stroke="#373737" stroke-width="2" stroke-linecap="round" stroke-linejoin="round"/>
<path d="M6.33615 22.1093L1.09863 19.6663" stroke="#373737" stroke-width="2" stroke-linecap="round" stroke-linejoin="round"/>
<path d="M1.09863 24.5525L15.1156 31.0896" stroke="#373737" stroke-width="2" stroke-linecap="round" stroke-linejoin="round"/>
<path d="M20.353 28.6467L15.1155 31.0897" stroke="#373737" stroke-width="2" stroke-linecap="round" stroke-linejoin="round"/>
<path d="M6.33615 22.1093L1.09863 24.5523" stroke="#373737" stroke-width="2" stroke-linecap="round" stroke-linejoin="round"/>
<path d="M39.6075 24.5525L25.5906 31.0896" stroke="#373737" stroke-width="2" stroke-linecap="round" stroke-linejoin="round"/>
<path d="M25.5905 31.0897L20.353 28.6467" stroke="#373737" stroke-width="2" stroke-linecap="round" stroke-linejoin="round"/>
<path d="M34.3699 22.1094L39.6074 24.5525" stroke="#373737" stroke-width="2" stroke-linecap="round" stroke-linejoin="round"/>
<path d="M20.353 31.7479V45.6588" stroke="#373737" stroke-width="2" stroke-linecap="round" stroke-linejoin="round"/>
<path d="M20.353 45.6586L34.3699 39.1215V32.1493" stroke="#373737" stroke-width="2" stroke-linecap="round" stroke-linejoin="round"/>
<path d="M20.353 1.60538V9.55927" stroke="#373737" stroke-width="2" stroke-linecap="round" stroke-linejoin="round"/>
<path d="M31.8322 6.74802L29.021 9.55921" stroke="#373737" stroke-width="2" stroke-linecap="round" stroke-linejoin="round"/>
<path d="M8.87402 6.74805L11.6852 9.55924" stroke="#373737" stroke-width="2" stroke-linecap="round" stroke-linejoin="round"/>
<defs>
<linearGradient id="paint0_linear_1_649" x1="10.1903" y1="41.9605" x2="34.448" y2="30.554" gradientUnits="userSpaceOnUse">
<stop stop-color="#E01535"/>
<stop offset="1" stop-color="white" stop-opacity="0"/>
</linearGradient>
<linearGradient id="paint1_linear_1_649" x1="23.8225" y1="38.4912" x2="5.2262" y2="30.3142" gradientUnits="userSpaceOnUse">
<stop stop-color="#E01535"/>
<stop offset="1" stop-color="white" stop-opacity="0"/>
</linearGradient>
</defs>
</svg>
