<svg width="15" height="15" viewBox="0 0 15 15" fill="none" xmlns="http://www.w3.org/2000/svg">
<g clip-path="url(#clip0_54_2026)">
<path d="M7.6436 5.65381C7.33263 5.65381 7.02864 5.74602 6.77007 5.91879C6.51151 6.09156 6.30998 6.33712 6.19097 6.62442C6.07197 6.91172 6.04083 7.22786 6.1015 7.53286C6.16217 7.83786 6.31192 8.11802 6.53181 8.33791C6.7517 8.5578 7.03186 8.70755 7.33686 8.76822C7.64186 8.82888 7.95799 8.79775 8.2453 8.67874C8.5326 8.55974 8.77816 8.35821 8.95093 8.09965C9.1237 7.84108 9.21591 7.53709 9.21591 7.22612C9.2154 6.80927 9.04958 6.40965 8.75482 6.11489C8.46007 5.82014 8.06045 5.65432 7.6436 5.65381Z" fill="white"/>
<path d="M9.49336 3.22119H5.79388C5.22242 3.22185 4.67455 3.44915 4.27047 3.85324C3.86639 4.25732 3.63909 4.80518 3.63843 5.37664V9.07613C3.63909 9.64758 3.86639 10.1954 4.27047 10.5995C4.67455 11.0036 5.22242 11.2309 5.79388 11.2316H9.49336C10.0648 11.2309 10.6127 11.0036 11.0168 10.5995C11.4208 10.1954 11.6482 9.64758 11.6488 9.07613V5.37664C11.6482 4.80518 11.4208 4.25732 11.0168 3.85324C10.6127 3.44915 10.0648 3.22185 9.49336 3.22119ZM7.64362 9.62933C7.16836 9.62933 6.70378 9.4884 6.30861 9.22436C5.91345 8.96032 5.60546 8.58503 5.42358 8.14595C5.24171 7.70687 5.19412 7.22372 5.28684 6.75759C5.37956 6.29146 5.60842 5.8633 5.94448 5.52724C6.28054 5.19118 6.7087 4.96232 7.17483 4.86961C7.64095 4.77689 8.12411 4.82447 8.56319 5.00635C9.00227 5.18822 9.37756 5.49621 9.6416 5.89138C9.90564 6.28654 10.0466 6.75112 10.0466 7.22638C10.0458 7.86346 9.79243 8.47423 9.34195 8.92471C8.89147 9.3752 8.2807 9.6286 7.64362 9.62933ZM10.2841 5.18762C10.1668 5.18762 10.0521 5.15284 9.95451 5.08767C9.85694 5.0225 9.78088 4.92988 9.73595 4.8215C9.69101 4.71312 9.67921 4.59385 9.70204 4.47877C9.72487 4.36368 9.7813 4.25795 9.86421 4.17493C9.94711 4.09191 10.0528 4.03533 10.1678 4.01234C10.2829 3.98935 10.4022 4.00098 10.5106 4.04576C10.619 4.09055 10.7118 4.16648 10.7771 4.26395C10.8424 4.36142 10.8773 4.47607 10.8775 4.59339C10.8776 4.67141 10.8624 4.74869 10.8326 4.82082C10.8029 4.89294 10.7592 4.95848 10.7041 5.0137C10.649 5.06892 10.5835 5.11273 10.5114 5.14262C10.4394 5.17251 10.3621 5.1879 10.2841 5.1879V5.18762Z" fill="white"/>
<path d="M14.1526 3.75467C14.1518 3.51959 14.1303 3.28504 14.0883 3.05374C14.0345 2.77132 13.9589 2.4961 13.8236 2.24084C13.6827 1.9719 13.4994 1.72745 13.2807 1.51691C12.9502 1.19346 12.5421 0.960562 12.0955 0.840648C11.6845 0.729785 11.2641 0.706504 10.8425 0.707058C10.8411 0.7052 10.8403 0.702996 10.84 0.700684H4.4449C4.4449 0.702901 4.4449 0.705118 4.4449 0.707058C4.20516 0.711493 3.96487 0.709553 3.72651 0.739208C3.46513 0.766843 3.2078 0.824503 2.95962 0.911046C2.57363 1.05342 2.22526 1.28207 1.94107 1.57955C1.6153 1.91061 1.38071 2.3203 1.26009 2.76883C1.15089 3.1768 1.12706 3.59281 1.1265 4.01187L1.12207 10.4328C1.12983 10.7224 1.13233 11.0148 1.1811 11.3019C1.23293 11.6068 1.30693 11.9036 1.44828 12.1802C1.63628 12.5509 1.90417 12.8752 2.23264 13.1298C2.4671 13.3167 2.73273 13.4607 3.01727 13.5552C3.43633 13.6905 3.86869 13.7423 4.30743 13.7448C4.58126 13.7465 4.85454 13.7534 5.12837 13.7523C7.11669 13.744 9.10529 13.7667 11.0936 13.7401C11.3563 13.7343 11.618 13.7065 11.876 13.6569C12.364 13.571 12.818 13.3499 13.1867 13.0189C13.6241 12.6287 13.9192 12.1514 14.0525 11.5752C14.1398 11.1985 14.1615 10.8163 14.1653 10.433V10.3565C14.1651 10.3266 14.1537 3.84059 14.1526 3.75467ZM12.4791 9.07608C12.4782 9.8677 12.1633 10.6266 11.6036 11.1864C11.0438 11.7462 10.2849 12.0611 9.49331 12.0622H5.79382C5.00216 12.0612 4.24319 11.7463 3.6834 11.1865C3.1236 10.6267 2.80869 9.86775 2.80774 9.07608V5.37659C2.80869 4.58493 3.1236 3.82596 3.6834 3.26617C4.24319 2.70637 5.00216 2.39146 5.79382 2.39051H9.49331C10.285 2.39146 11.0439 2.70637 11.6037 3.26617C12.1635 3.82596 12.4784 4.58493 12.4794 5.37659L12.4791 9.07608Z" fill="white"/>
</g>
<defs>
<clipPath id="clip0_54_2026">
<rect width="13.8578" height="13.8578" fill="white" transform="translate(0.7146 0.297363)"/>
</clipPath>
</defs>
</svg>
