<svg width="13" height="13" viewBox="0 0 13 13" fill="none" xmlns="http://www.w3.org/2000/svg">
<path d="M12.6668 3.03676V6.91093C12.6668 7.22182 12.415 7.47362 12.1041 7.47362H3.08129V8.69327H9.24844C9.55933 8.69327 9.81113 8.94507 9.81113 9.25596C9.81113 9.56685 9.55933 9.81866 9.24844 9.81866H2.51859C2.2077 9.81866 1.95589 9.56685 1.95589 9.25596V1.77351L0.461936 1.50342C0.156674 1.44715 -0.045897 1.15454 0.0089659 0.849282C0.0638288 0.544019 0.356431 0.340042 0.6631 0.394905L2.61847 0.749404L4.57524 1.1025C4.57524 1.1025 4.5865 1.10531 4.59213 1.10672L12.204 2.48251C12.4713 2.53174 12.6668 2.76386 12.6668 3.03676Z" fill="#999999"/>
<path d="M3.345 12.2298C3.83757 12.2298 4.23687 11.8305 4.23687 11.3379C4.23687 10.8453 3.83757 10.446 3.345 10.446C2.85243 10.446 2.45312 10.8453 2.45312 11.3379C2.45312 11.8305 2.85243 12.2298 3.345 12.2298Z" fill="#999999"/>
<path d="M9.90359 12.2298C10.3962 12.2298 10.7955 11.8305 10.7955 11.3379C10.7955 10.8453 10.3962 10.446 9.90359 10.446C9.41102 10.446 9.01172 10.8453 9.01172 11.3379C9.01172 11.8305 9.41102 12.2298 9.90359 12.2298Z" fill="#999999"/>
</svg>
