<svg width="16" height="14" viewBox="0 0 16 14" fill="none" xmlns="http://www.w3.org/2000/svg">
<path d="M15.4924 3.23111V7.67797C15.4924 8.03481 15.2034 8.32384 14.8465 8.32384H4.4899V9.72378H11.5687C11.9256 9.72378 12.2146 10.0128 12.2146 10.3697C12.2146 10.7265 11.9256 11.0155 11.5687 11.0155H3.84403C3.48718 11.0155 3.19815 10.7265 3.19815 10.3697V1.78111L1.48335 1.47109C1.13296 1.4065 0.900443 1.07065 0.963416 0.720259C1.02639 0.369871 1.36225 0.135741 1.71425 0.198714L3.95867 0.605616L6.20471 1.0109C6.20471 1.0109 6.21762 1.01413 6.22408 1.01575L14.9612 2.59492C15.268 2.65143 15.4924 2.91786 15.4924 3.23111Z" fill="white"/>
<path d="M4.79129 13.7828C5.35668 13.7828 5.81501 13.3244 5.81501 12.7591C5.81501 12.1937 5.35668 11.7354 4.79129 11.7354C4.22591 11.7354 3.76758 12.1937 3.76758 12.7591C3.76758 13.3244 4.22591 13.7828 4.79129 13.7828Z" fill="white"/>
<path d="M12.3206 13.7828C12.886 13.7828 13.3443 13.3244 13.3443 12.7591C13.3443 12.1937 12.886 11.7354 12.3206 11.7354C11.7552 11.7354 11.2969 12.1937 11.2969 12.7591C11.2969 13.3244 11.7552 13.7828 12.3206 13.7828Z" fill="white"/>
</svg>
