<svg width="14" height="12" viewBox="0 0 14 12" fill="none" xmlns="http://www.w3.org/2000/svg">
<path d="M13.1766 2.81582V6.68998C13.1766 7.00087 12.9248 7.25267 12.6139 7.25267H3.59105V8.47232H9.7582C10.0691 8.47232 10.3209 8.72412 10.3209 9.03501C10.3209 9.3459 10.0691 9.59771 9.7582 9.59771H3.02836C2.71747 9.59771 2.46566 9.3459 2.46566 9.03501V1.55256L0.971702 1.28247C0.666439 1.2262 0.463869 0.933597 0.518732 0.628335C0.573594 0.323072 0.866196 0.119095 1.17287 0.173958L3.12823 0.528456L5.08501 0.881548C5.08501 0.881548 5.09626 0.884362 5.10189 0.885768L12.7138 2.26156C12.981 2.3108 13.1766 2.54291 13.1766 2.81582Z" fill="#292929"/>
<path d="M3.85476 12.0088C4.34733 12.0088 4.74664 11.6095 4.74664 11.117C4.74664 10.6244 4.34733 10.2251 3.85476 10.2251C3.3622 10.2251 2.96289 10.6244 2.96289 11.117C2.96289 11.6095 3.3622 12.0088 3.85476 12.0088Z" fill="#292929"/>
<path d="M10.4134 12.0088C10.9059 12.0088 11.3052 11.6095 11.3052 11.117C11.3052 10.6244 10.9059 10.2251 10.4134 10.2251C9.92079 10.2251 9.52148 10.6244 9.52148 11.117C9.52148 11.6095 9.92079 12.0088 10.4134 12.0088Z" fill="#292929"/>
</svg>
