<svg width="13" height="13" viewBox="0 0 13 13" fill="none" xmlns="http://www.w3.org/2000/svg">
<path d="M10.6784 10.531H8.86669V7.69361C8.86669 7.01702 8.85461 6.14604 7.9244 6.14604C6.98078 6.14604 6.83641 6.88321 6.83641 7.64435V10.5308H5.02468V4.69604H6.76394V5.49341H6.78829C6.96235 5.1958 7.21387 4.95096 7.51606 4.78499C7.81825 4.61901 8.15981 4.53811 8.50434 4.5509C10.3406 4.5509 10.6792 5.75877 10.6792 7.33012L10.6784 10.531ZM2.98044 3.89847C2.7725 3.89851 2.56922 3.83688 2.3963 3.72138C2.22338 3.60588 2.08859 3.4417 2.00898 3.24959C1.92937 3.05749 1.90851 2.84609 1.94905 2.64213C1.98958 2.43817 2.08968 2.25081 2.23669 2.10374C2.3837 1.95667 2.57102 1.8565 2.77495 1.81589C2.97889 1.77529 3.19029 1.79607 3.38242 1.87561C3.57455 1.95516 3.73877 2.08989 3.85433 2.26277C3.96989 2.43566 4.03159 2.63892 4.03162 2.84687C4.03165 2.98494 4.00448 3.12167 3.95166 3.24924C3.89885 3.37681 3.82143 3.49274 3.72382 3.59038C3.62621 3.68803 3.51032 3.7655 3.38277 3.81836C3.25522 3.87122 3.11851 3.89844 2.98044 3.89847ZM3.88631 10.531H2.07269V4.69604H3.88631V10.531ZM11.5816 0.113137H1.16229C0.925801 0.110469 0.697926 0.201801 0.528739 0.367065C0.359552 0.53233 0.262896 0.758005 0.26001 0.9945V11.4574C0.262797 11.694 0.359391 11.9199 0.528572 12.0853C0.697753 12.2507 0.925684 12.3423 1.16229 12.3397H11.5816C11.8187 12.3427 12.0473 12.2515 12.2171 12.086C12.387 11.9206 12.4842 11.6945 12.4875 11.4574V0.993745C12.4841 0.756781 12.3868 0.53085 12.217 0.365589C12.0471 0.200329 11.8186 0.109257 11.5816 0.112383" fill="white"/>
</svg>
