<svg width="15" height="21" viewBox="0 0 15 21" fill="none" xmlns="http://www.w3.org/2000/svg">
<path d="M7.33133 0.135254C3.43041 0.135254 0.256836 3.30929 0.256836 7.21032C0.256836 10.9654 6.67565 19.7386 6.94896 20.1101L7.20403 20.4572C7.23386 20.498 7.28136 20.5219 7.33133 20.5219C7.38208 20.5219 7.42927 20.498 7.45941 20.4572L7.71432 20.1101C7.98779 19.7386 14.4064 10.9654 14.4064 7.21032C14.4064 3.30929 11.2324 0.135254 7.33133 0.135254ZM7.33133 4.67604C8.72904 4.67604 9.86561 5.81265 9.86561 7.21032C9.86561 8.60726 8.72899 9.74459 7.33133 9.74459C5.93444 9.74459 4.79706 8.60726 4.79706 7.21032C4.79706 5.81265 5.93439 4.67604 7.33133 4.67604Z" fill="#E01535"/>
</svg>
