<svg width="13" height="13" viewBox="0 0 13 13" fill="none" xmlns="http://www.w3.org/2000/svg">
<path d="M8.47157 5.97411V10.7571C8.47157 11.4508 7.90929 12.012 7.21564 12.012H2.43261C1.73896 12.012 1.17773 11.4508 1.17773 10.7571V5.97411C1.17773 5.28046 1.73896 4.71924 2.43261 4.71924H7.21564C7.90929 4.71924 8.47157 5.28046 8.47157 5.97411Z" stroke="#747474" stroke-linecap="round" stroke-linejoin="round"/>
<path d="M12.1175 2.0686V6.85268C12.1175 7.54528 11.5563 8.10756 10.8626 8.10756H8.47163V5.97406C8.47163 5.28041 7.90935 4.71918 7.2157 4.71918H4.82471V2.0686C4.82471 1.376 5.38593 0.813721 6.07958 0.813721H10.8626C11.5563 0.813721 12.1175 1.376 12.1175 2.0686Z" stroke="#747474" stroke-linecap="round" stroke-linejoin="round"/>
<path d="M2.43042 6.63086L6.32327 10.8779" stroke="#747474" stroke-linecap="round" stroke-linejoin="round"/>
<path d="M6.17725 7.1416L7.42371 8.50158" stroke="#747474" stroke-linecap="round" stroke-linejoin="round"/>
<path d="M8.47144 2.60889L9.98696 4.26209" stroke="#747474" stroke-linecap="round" stroke-linejoin="round"/>
</svg>
