<svg width="12" height="13" viewBox="0 0 12 13" fill="none" xmlns="http://www.w3.org/2000/svg">
<path d="M10.1397 1.0105H2.03086C1.28652 1.0105 0.683105 1.61391 0.683105 2.35825V10.4671C0.683105 11.2114 1.28652 11.8148 2.03086 11.8148H10.1397C10.8841 11.8148 11.4875 11.2114 11.4875 10.4671V2.35825C11.4875 1.61391 10.8841 1.0105 10.1397 1.0105Z" stroke="#747474" stroke-linecap="round" stroke-linejoin="round"/>
<path d="M2.20932 2.9345C2.20932 2.9345 2.82041 2.82009 3.26269 3.26097C3.70496 3.70325 3.56265 4.28783 3.56265 4.28783C3.56265 4.28783 2.95156 4.40224 2.50928 3.96136C2.06701 3.52048 2.20932 2.9345 2.20932 2.9345Z" fill="#747474"/>
<path d="M8.60629 2.9345C8.60629 2.9345 9.21738 2.82009 9.65966 3.26097C10.1019 3.70325 9.95962 4.28783 9.95962 4.28783C9.95962 4.28783 9.34853 4.40224 8.90625 3.96136C8.46398 3.52048 8.60629 2.9345 8.60629 2.9345Z" fill="#747474"/>
<path d="M5.16715 5.63128C5.16715 5.63128 4.55605 5.51687 4.11378 5.95775C3.6715 6.39863 3.81381 6.98461 3.81381 6.98461C3.81381 6.98461 4.4249 7.09902 4.86718 6.65814C5.30945 6.21586 5.16715 5.63128 5.16715 5.63128Z" fill="#747474"/>
<path d="M8.56314 5.63128C8.56314 5.63128 7.95204 5.51687 7.50977 5.95775C7.06749 6.39863 7.20981 6.98461 7.20981 6.98461C7.20981 6.98461 7.8209 7.09902 8.26317 6.65814C8.70545 6.21586 8.56314 5.63128 8.56314 5.63128Z" fill="#747474"/>
<path d="M5.40854 2.9345C5.40854 2.9345 6.01963 2.82009 6.4619 3.26097C6.90418 3.70325 6.76187 4.28783 6.76187 4.28783C6.76187 4.28783 6.15078 4.40224 5.70851 3.96136C5.26623 3.52048 5.40854 2.9345 5.40854 2.9345Z" fill="#747474"/>
<path d="M2.20932 8.53899C2.20932 8.53899 2.82041 8.42458 3.26269 8.86546C3.70496 9.30774 3.56265 9.89232 3.56265 9.89232C3.56265 9.89232 2.95156 10.0067 2.50928 9.56585C2.06701 9.12497 2.20932 8.53899 2.20932 8.53899Z" fill="#747474"/>
<path d="M8.60629 8.53899C8.60629 8.53899 9.21738 8.42458 9.65966 8.86546C10.1019 9.30774 9.95962 9.89232 9.95962 9.89232C9.95962 9.89232 9.34853 10.0067 8.90625 9.56585C8.46398 9.12497 8.60629 8.53899 8.60629 8.53899Z" fill="#747474"/>
<path d="M5.40854 8.53899C5.40854 8.53899 6.01963 8.42458 6.4619 8.86546C6.90418 9.30774 6.76187 9.89232 6.76187 9.89232C6.76187 9.89232 6.15078 10.0067 5.70851 9.56585C5.26623 9.12497 5.40854 8.53899 5.40854 8.53899Z" fill="#747474"/>
</svg>
