<svg width="23" height="22" viewBox="0 0 23 22" fill="none" xmlns="http://www.w3.org/2000/svg">
<path d="M10.3064 2.04729C10.6806 0.895653 12.3099 0.895656 12.6841 2.04729L13.9083 5.81507C14.2764 6.94814 15.3323 7.71528 16.5237 7.71528H20.4854C21.6963 7.71528 22.1997 9.2648 21.2201 9.97655L18.015 12.3052C17.0512 13.0054 16.6479 14.2467 17.016 15.3798L18.2403 19.1475C18.6145 20.2992 17.2964 21.2568 16.3167 20.5451L13.1116 18.2165C12.1478 17.5162 10.8427 17.5162 9.87883 18.2165L6.67376 20.5451C5.69412 21.2568 4.37602 20.2992 4.75021 19.1476L5.97443 15.3798C6.34259 14.2467 5.93928 13.0054 4.97544 12.3052L1.77037 9.97655C0.790728 9.2648 1.2942 7.71528 2.5051 7.71528H6.46678C7.65816 7.71528 8.71404 6.94814 9.08219 5.81508L10.3064 2.04729Z" stroke="#373737" stroke-width="1.5"/>
</svg>
