<svg width="14" height="15" viewBox="0 0 14 15" fill="none" xmlns="http://www.w3.org/2000/svg">
<path d="M3.57814 10.6599C-0.282003 6.35043 0.0721243 1.54232 1.91006 0.695467C2.92757 0.227899 3.8201 0.308007 4.41459 0.474762C4.86806 0.600646 5.17091 1.03879 5.14528 1.5178L5.06516 3.10851C5.04112 3.56137 4.73026 3.94556 4.29761 4.05182L3.75441 4.18588C3.70153 7.18584 5.54587 8.82723 5.54587 8.82723C5.54587 8.82723 6.98161 10.8495 9.91397 11.0637L10.095 10.5242C10.2393 10.0942 10.6415 9.81305 11.0853 9.8294L12.6476 9.88826C13.1171 9.90624 13.5161 10.2528 13.5995 10.7253C13.7084 11.3449 13.7068 12.2588 13.1588 13.2512C12.1653 15.043 7.43989 14.9694 3.57814 10.6599Z" fill="#292929"/>
</svg>
