<svg width="15" height="12" viewBox="0 0 15 12" fill="none" xmlns="http://www.w3.org/2000/svg">
<path d="M4.7704 11.9325C10.1693 11.9325 13.1218 7.69931 13.1218 4.02862C13.1218 3.90797 13.1193 3.78816 13.1136 3.66915C13.6883 3.27624 14.184 2.78875 14.5777 2.23036C14.0519 2.45209 13.4853 2.60128 12.8919 2.66812C13.4984 2.32412 13.963 1.7804 14.1831 1.13153C13.6068 1.45515 12.9759 1.68339 12.3188 1.80567C11.7833 1.26603 11.0211 0.927734 10.1766 0.927734C8.55521 0.927734 7.24118 2.17249 7.24118 3.70581C7.24118 3.92428 7.26725 4.13623 7.31698 4.33921C4.878 4.22345 2.71455 3.11727 1.26681 1.43639C1.00596 1.86028 0.869009 2.34287 0.869824 2.83278C0.869824 3.79713 1.38745 4.64816 2.17571 5.14542C1.70944 5.13237 1.25377 5.01252 0.846191 4.79814C0.846191 4.80955 0.846191 4.82096 0.846191 4.83319C0.846191 6.17903 1.85781 7.30233 3.20039 7.55666C2.94851 7.62187 2.68846 7.6545 2.4268 7.6545C2.24175 7.6545 2.05671 7.63738 1.87493 7.60477C2.24909 8.70851 3.33243 9.51145 4.61713 9.53428C3.61203 10.2793 2.34691 10.7236 0.97172 10.7236C0.735321 10.7236 0.501361 10.7105 0.271484 10.6845C1.57005 11.4727 3.11317 11.9325 4.7704 11.9325Z" fill="white"/>
</svg>
