<svg width="12" height="15" viewBox="0 0 12 15" fill="none" xmlns="http://www.w3.org/2000/svg">
<path d="M11.6346 5.1768C11.6346 4.87428 11.4977 4.58803 11.2621 4.3982L6.94483 0.918602C6.57856 0.6234 6.05606 0.6234 5.68979 0.918602L1.37248 4.3982C1.13694 4.58803 1 4.87428 1 5.1768V11.9168C1 12.4691 1.44772 12.9168 2 12.9168H10.6346C11.1869 12.9168 11.6346 12.4691 11.6346 11.9168V5.1768Z" fill="#E01535"/>
<path d="M1.26196 14.4126H11.3725" stroke="#E01535" stroke-linecap="round" stroke-linejoin="round"/>
<path d="M8.92879 8.8715C8.13258 10.117 6.31725 10.7856 6.31725 10.7856C6.31725 10.7856 4.50191 10.117 3.7057 8.8715C2.90948 7.62605 3.35527 5.97616 4.53408 5.7211C5.7129 5.46718 6.31725 6.61268 6.31725 6.61268C6.31725 6.61268 6.92274 5.46603 8.10041 5.7211C9.27922 5.97616 9.72501 7.6249 8.92879 8.8715Z" fill="#FFF9F4"/>
</svg>
