<svg width="17" height="18" viewBox="0 0 17 18" fill="none" xmlns="http://www.w3.org/2000/svg">
<path d="M12.2999 10.4421C12.2677 10.4267 11.0621 9.83296 10.8478 9.75586C10.7603 9.72444 10.6666 9.69378 10.567 9.69378C10.4042 9.69378 10.2674 9.77492 10.1609 9.93428C10.0405 10.1133 9.67587 10.5395 9.56321 10.6668C9.5485 10.6836 9.52842 10.7037 9.51639 10.7037C9.5056 10.7037 9.31901 10.6268 9.26252 10.6023C7.96916 10.0405 6.98746 8.68947 6.85284 8.46164C6.83362 8.42889 6.83281 8.41401 6.83265 8.41401C6.83738 8.39667 6.88087 8.35307 6.90332 8.33057C6.96898 8.2656 7.04013 8.17996 7.10897 8.0971C7.14156 8.05785 7.17421 8.01855 7.20626 7.9815C7.30614 7.8653 7.3506 7.77509 7.40214 7.6706L7.42915 7.61632C7.55501 7.36626 7.44752 7.15524 7.41277 7.0871C7.38426 7.03007 6.87518 5.80142 6.82105 5.67234C6.6909 5.36085 6.51891 5.21582 6.27991 5.21582C6.25774 5.21582 6.27991 5.21582 6.18691 5.21974C6.07367 5.22452 5.45698 5.30571 5.18432 5.47758C4.89517 5.65988 4.40601 6.24097 4.40601 7.2629C4.40601 8.18264 4.98967 9.05105 5.24027 9.38133C5.2465 9.38965 5.25793 9.40657 5.27453 9.43084C6.23422 10.8324 7.4306 11.8711 8.64341 12.3556C9.81102 12.822 10.3639 12.8759 10.6782 12.8759H10.6783C10.8104 12.8759 10.9161 12.8655 11.0094 12.8563L11.0686 12.8507C11.4719 12.8149 12.3583 12.3556 12.5599 11.7953C12.7188 11.354 12.7607 10.8718 12.655 10.6968C12.5826 10.5778 12.4579 10.518 12.2999 10.4421Z" fill="white"/>
<path d="M8.47835 0.938965C3.99931 0.938965 0.355341 4.55555 0.355341 9.00092C0.355341 10.4387 0.740121 11.8461 1.46903 13.0779L0.0738709 17.1934C0.0478824 17.2701 0.0672127 17.3549 0.123969 17.4127C0.164938 17.4545 0.220512 17.4771 0.277268 17.4771C0.299015 17.4771 0.320922 17.4738 0.342293 17.467L4.63361 16.1033C5.80793 16.7308 7.13516 17.062 8.4784 17.062C12.957 17.062 16.6006 13.4458 16.6006 9.00092C16.6006 4.55555 12.957 0.938965 8.47835 0.938965ZM8.47835 15.3826C7.21442 15.3826 5.99022 15.0177 4.9379 14.3272C4.90252 14.3039 4.86144 14.292 4.8201 14.292C4.79824 14.292 4.77633 14.2953 4.75502 14.3021L2.60533 14.9854L3.29929 12.9381C3.32173 12.8718 3.31051 12.7987 3.26916 12.7422C2.46782 11.6473 2.04422 10.3536 2.04422 9.00092C2.04422 5.48158 4.93055 2.61834 8.4783 2.61834C12.0256 2.61834 14.9116 5.48158 14.9116 9.00092C14.9117 12.5198 12.0257 15.3826 8.47835 15.3826Z" fill="white"/>
</svg>
