<svg width="18" height="12" viewBox="0 0 18 12" fill="none" xmlns="http://www.w3.org/2000/svg">
<path d="M16.7676 1.8989C16.5796 1.20057 16.029 0.649968 15.3306 0.461957C14.0548 0.112793 8.95168 0.112793 8.95168 0.112793C8.95168 0.112793 3.84852 0.112793 2.57273 0.448527C1.88783 0.636539 1.32379 1.20057 1.13578 1.8989C0.800049 3.17469 0.800049 5.82028 0.800049 5.82028C0.800049 5.82028 0.800049 8.47929 1.13578 9.74166C1.32379 10.44 1.8744 10.9906 2.57273 11.1786C3.86195 11.5278 8.95168 11.5278 8.95168 11.5278C8.95168 11.5278 14.0548 11.5278 15.3306 11.192C16.029 11.004 16.5796 10.4534 16.7676 9.75509C17.1033 8.4793 17.1033 5.83371 17.1033 5.83371C17.1033 5.83371 17.1167 3.17469 16.7676 1.8989Z" fill="white"/>
<path d="M7.3269 3.37598V8.26427L11.5706 5.82012L7.3269 3.37598Z" fill="#E01535"/>
</svg>
